<?xml version="1.0" encoding="UTF-8" standalone="no"?>
<!-- Created with Inkscape (http://www.inkscape.org/) -->

<svg
   xmlns:dc="http://purl.org/dc/elements/1.1/"
   xmlns:cc="http://creativecommons.org/ns#"
   xmlns:rdf="http://www.w3.org/1999/02/22-rdf-syntax-ns#"
   xmlns:svg="http://www.w3.org/2000/svg"
   xmlns="http://www.w3.org/2000/svg"
   xmlns:xlink="http://www.w3.org/1999/xlink"
   xmlns:sodipodi="http://sodipodi.sourceforge.net/DTD/sodipodi-0.dtd"
   xmlns:inkscape="http://www.inkscape.org/namespaces/inkscape"
   width="128"
   height="128"
   id="svg2"
   version="1.1"
   inkscape:version="0.48.3.1 r9886"
   sodipodi:docname="curlew.svg">
  <defs
     id="defs4">
    <linearGradient
       inkscape:collect="always"
       id="linearGradient3911">
      <stop
         style="stop-color:#2d2d2d;stop-opacity:1"
         offset="0"
         id="stop3913" />
      <stop
         style="stop-color:#ffffff;stop-opacity:0;"
         offset="1"
         id="stop3915" />
    </linearGradient>
    <linearGradient
       id="linearGradient3066">
      <stop
         style="stop-color:#ffffff;stop-opacity:0;"
         offset="0"
         id="stop3068" />
      <stop
         id="stop3074"
         offset="0.5"
         style="stop-color:#ffffff;stop-opacity:1" />
      <stop
         style="stop-color:#ffffff;stop-opacity:0;"
         offset="1"
         id="stop3070" />
    </linearGradient>
    <linearGradient
       id="linearGradient3073">
      <stop
         style="stop-color:#555753;stop-opacity:1;"
         offset="0"
         id="stop3075" />
      <stop
         style="stop-color:#41b8da;stop-opacity:1"
         offset="1"
         id="stop3077" />
    </linearGradient>
    <linearGradient
       id="linearGradient3065">
      <stop
         id="stop3067"
         offset="0"
         style="stop-color:#666666;stop-opacity:1" />
      <stop
         style="stop-color:#ffb686;stop-opacity:1;"
         offset="0.59934407"
         id="stop3069" />
      <stop
         id="stop3071"
         offset="1"
         style="stop-color:#4ec7ed;stop-opacity:0;" />
    </linearGradient>
    <linearGradient
       id="linearGradient3049">
      <stop
         style="stop-color:#666666;stop-opacity:1"
         offset="0"
         id="stop3051" />
      <stop
         id="stop3053"
         offset="0.61760759"
         style="stop-color:#ffb686;stop-opacity:1;" />
      <stop
         style="stop-color:#4ec7ed;stop-opacity:0;"
         offset="1"
         id="stop3055" />
    </linearGradient>
    <linearGradient
       id="linearGradient3030">
      <stop
         id="stop3032"
         offset="0"
         style="stop-color:#0d74dd;stop-opacity:1;" />
      <stop
         style="stop-color:#eeeeec;stop-opacity:1"
         offset="0.78792906"
         id="stop3034" />
      <stop
         id="stop3036"
         offset="1"
         style="stop-color:#4ec7ed;stop-opacity:1;" />
    </linearGradient>
    <linearGradient
       id="linearGradient3038">
      <stop
         id="stop3040"
         offset="0"
         style="stop-color:#2e3436;stop-opacity:1" />
      <stop
         style="stop-color:#ffb686;stop-opacity:1;"
         offset="0.62856132"
         id="stop3042" />
      <stop
         id="stop3044"
         offset="1"
         style="stop-color:#4ec7ed;stop-opacity:1;" />
    </linearGradient>
    <linearGradient
       inkscape:collect="always"
       id="linearGradient3805">
      <stop
         style="stop-color:#aa4400;stop-opacity:1;"
         offset="0"
         id="stop3807" />
      <stop
         style="stop-color:#aa4400;stop-opacity:0;"
         offset="1"
         id="stop3809" />
    </linearGradient>
    <linearGradient
       inkscape:collect="always"
       id="linearGradient3945">
      <stop
         style="stop-color:#ffffff;stop-opacity:1;"
         offset="0"
         id="stop3947" />
      <stop
         style="stop-color:#ffffff;stop-opacity:0;"
         offset="1"
         id="stop3949" />
    </linearGradient>
    <linearGradient
       id="linearGradient3938">
      <stop
         style="stop-color:#0d74dd;stop-opacity:1;"
         offset="0"
         id="stop3940" />
      <stop
         id="stop2996"
         offset="0.62856132"
         style="stop-color:#ffb686;stop-opacity:1;" />
      <stop
         style="stop-color:#20b8e8;stop-opacity:1;"
         offset="1"
         id="stop3942" />
    </linearGradient>
    <linearGradient
       inkscape:collect="always"
       id="linearGradient3912">
      <stop
         style="stop-color:#ffffff;stop-opacity:1;"
         offset="0"
         id="stop3914" />
      <stop
         style="stop-color:#ffffff;stop-opacity:0;"
         offset="1"
         id="stop3916" />
    </linearGradient>
    <linearGradient
       inkscape:collect="always"
       id="linearGradient3031">
      <stop
         style="stop-color:#ffffff;stop-opacity:1;"
         offset="0"
         id="stop3033" />
      <stop
         style="stop-color:#ffffff;stop-opacity:0;"
         offset="1"
         id="stop3035" />
    </linearGradient>
    <linearGradient
       inkscape:collect="always"
       xlink:href="#linearGradient3031"
       id="linearGradient3883"
       gradientUnits="userSpaceOnUse"
       gradientTransform="translate(0.92654529,924.36218)"
       x1="34.569664"
       y1="-1.7484819"
       x2="54.772717"
       y2="65.146065" />
    <linearGradient
       inkscape:collect="always"
       xlink:href="#linearGradient3912"
       id="linearGradient3918"
       x1="30.529053"
       y1="-3.5443091"
       x2="55.670628"
       y2="65.595016"
       gradientUnits="userSpaceOnUse" />
    <linearGradient
       inkscape:collect="always"
       xlink:href="#linearGradient3938"
       id="linearGradient3944"
       x1="65.547668"
       y1="1048.3217"
       x2="64.649757"
       y2="925.01477"
       gradientUnits="userSpaceOnUse"
       gradientTransform="matrix(1,0,0,0.96067588,0,38.866467)" />
    <linearGradient
       inkscape:collect="always"
       xlink:href="#linearGradient3945"
       id="linearGradient3951"
       x1="67.453972"
       y1="926.39392"
       x2="67.860321"
       y2="965.40344"
       gradientUnits="userSpaceOnUse" />
    <linearGradient
       inkscape:collect="always"
       xlink:href="#linearGradient3805"
       id="linearGradient3811"
       x1="67.283806"
       y1="952.90613"
       x2="67.283806"
       y2="929.29309"
       gradientUnits="userSpaceOnUse" />
    <linearGradient
       inkscape:collect="always"
       xlink:href="#linearGradient3938"
       id="linearGradient3884"
       gradientUnits="userSpaceOnUse"
       gradientTransform="matrix(1,0,0,0.96067588,0,38.866467)"
       x1="65.547668"
       y1="1048.3217"
       x2="64.649757"
       y2="925.01477" />
    <linearGradient
       inkscape:collect="always"
       xlink:href="#linearGradient3805"
       id="linearGradient3886"
       gradientUnits="userSpaceOnUse"
       x1="67.283806"
       y1="952.90613"
       x2="67.283806"
       y2="929.29309" />
    <linearGradient
       inkscape:collect="always"
       xlink:href="#linearGradient3066"
       id="linearGradient3072"
       x1="43.994072"
       y1="1040.4172"
       x2="43.994072"
       y2="936.11273"
       gradientUnits="userSpaceOnUse" />
    <linearGradient
       inkscape:collect="always"
       xlink:href="#linearGradient3938"
       id="linearGradient3128"
       gradientUnits="userSpaceOnUse"
       gradientTransform="matrix(0.92768457,0,0,0.89120419,4.6281893,-816.39654)"
       x1="64.691109"
       y1="1039.9999"
       x2="64.649757"
       y2="925.01477" />
    <linearGradient
       inkscape:collect="always"
       xlink:href="#linearGradient3911"
       id="linearGradient3917"
       x1="63.557903"
       y1="120.75923"
       x2="63.021549"
       y2="108.14883"
       gradientUnits="userSpaceOnUse"
       gradientTransform="matrix(1,0,0,-1,0,1053.2372)" />
  </defs>
  <sodipodi:namedview
     id="base"
     pagecolor="#ffffff"
     bordercolor="#666666"
     borderopacity="1.0"
     inkscape:pageopacity="0.0"
     inkscape:pageshadow="2"
     inkscape:zoom="3.7288834"
     inkscape:cx="26.842928"
     inkscape:cy="67.218122"
     inkscape:document-units="px"
     inkscape:current-layer="layer1"
     showgrid="false"
     inkscape:window-width="1600"
     inkscape:window-height="842"
     inkscape:window-x="-4"
     inkscape:window-y="-3"
     inkscape:window-maximized="1"
     inkscape:snap-to-guides="false" />
  <metadata
     id="metadata7">
    <rdf:RDF>
      <cc:Work
         rdf:about="">
        <dc:format>image/svg+xml</dc:format>
        <dc:type
           rdf:resource="http://purl.org/dc/dcmitype/StillImage" />
        <dc:title />
      </cc:Work>
    </rdf:RDF>
  </metadata>
  <g
     inkscape:label="Layer 1"
     inkscape:groupmode="layer"
     id="layer1"
     transform="translate(0,-924.36218)">
    <path
       id="path3133"
       d="m 12,934.84994 c -3.0634349,0 -5.53125,2.46782 -5.53125,5.53125 l 0,99.43771 c 0,3.0635 2.4678151,5.5313 5.53125,5.5313 l 104,0 c 3.06343,0 5.53125,-2.4678 5.53125,-5.5313 l 0,-99.43771 c 0,-3.06343 -2.46782,-5.53125 -5.53125,-5.53125 l -104,0 z m 2.3125,8.46875 7.375,0 c 1.188559,0 2.15625,0.9677 2.15625,2.15625 l 0,5.875 c 0,1.18856 -0.967691,2.15625 -2.15625,2.15625 l -7.375,0 c -1.18856,0 -2.15625,-0.96769 -2.15625,-2.15625 l 0,-5.875 c 0,-1.18855 0.96769,-2.15625 2.15625,-2.15625 z m 92,0 7.375,0 c 1.18855,0 2.15625,0.9677 2.15625,2.15625 l 0,5.875 c 0,1.18856 -0.9677,2.15625 -2.15625,2.15625 l -7.375,0 c -1.18856,0 -2.15625,-0.96769 -2.15625,-2.15625 l 0,-5.875 c 0,-1.18855 0.96769,-2.15625 2.15625,-2.15625 z m -92,14 7.375,0 c 1.188559,0 2.15625,0.9677 2.15625,2.15625 l 0,5.87499 c 0,1.18856 -0.967691,2.15625 -2.15625,2.15625 l -7.375,0 c -1.18856,0 -2.15625,-0.96769 -2.15625,-2.15625 l 0,-5.87499 c 0,-1.18855 0.96769,-2.15625 2.15625,-2.15625 z m 92,0 7.375,0 c 1.18855,0 2.15625,0.9677 2.15625,2.15625 l 0,5.87499 c 0,1.18856 -0.9677,2.15625 -2.15625,2.15625 l -7.375,0 c -1.18856,0 -2.15625,-0.96769 -2.15625,-2.15625 l 0,-5.87499 c 0,-1.18855 0.96769,-2.15625 2.15625,-2.15625 z m -92,13.99999 7.375,0 c 1.188559,0 2.15625,0.9677 2.15625,2.15625 l 0,5.875 c 0,1.18856 -0.967691,2.15625 -2.15625,2.15625 l -7.375,0 c -1.18856,0 -2.15625,-0.96769 -2.15625,-2.15625 l 0,-5.875 c 0,-1.18855 0.96769,-2.15625 2.15625,-2.15625 z m 92,0 7.375,0 c 1.18855,0 2.15625,0.9677 2.15625,2.15625 l 0,5.875 c 0,1.18856 -0.9677,2.15625 -2.15625,2.15625 l -7.375,0 c -1.18856,0 -2.15625,-0.96769 -2.15625,-2.15625 l 0,-5.875 c 0,-1.18855 0.96769,-2.15625 2.15625,-2.15625 z m -92,14 7.375,0 c 1.188559,0 2.15625,0.9677 2.15625,2.15625 l 0,5.875 c 0,1.18856 -0.967691,2.15625 -2.15625,2.15625 l -7.375,0 c -1.18856,0 -2.15625,-0.96769 -2.15625,-2.15625 l 0,-5.875 c 0,-1.18855 0.96769,-2.15625 2.15625,-2.15625 z m 92,0 7.375,0 c 1.18855,0 2.15625,0.9677 2.15625,2.15625 l 0,5.875 c 0,1.18856 -0.9677,2.15625 -2.15625,2.15625 l -7.375,0 c -1.18856,0 -2.15625,-0.96769 -2.15625,-2.15625 l 0,-5.875 c 0,-1.18855 0.96769,-2.15625 2.15625,-2.15625 z m -92,14 7.375,0 c 1.188559,0 2.15625,0.96772 2.15625,2.15652 l 0,5.875 c 0,1.1885 -0.967691,2.1562 -2.15625,2.1562 l -7.375,0 c -1.18856,0 -2.15625,-0.9677 -2.15625,-2.1562 l 0,-5.875 c 0,-1.1888 0.96769,-2.15652 2.15625,-2.15652 z m 92,0 7.375,0 c 1.18855,0 2.15625,0.96772 2.15625,2.15652 l 0,5.875 c 0,1.1885 -0.9677,2.1562 -2.15625,2.1562 l -7.375,0 c -1.18856,0 -2.15625,-0.9677 -2.15625,-2.1562 l 0,-5.875 c 0,-1.1888 0.96769,-2.15652 2.15625,-2.15652 z m -92,14.00022 7.375,0 c 1.188559,0 2.15625,0.9677 2.15625,2.1563 l 0,5.875 c 0,1.1886 -0.967691,2.1562 -2.15625,2.1562 l -7.375,0 c -1.18856,0 -2.15625,-0.9676 -2.15625,-2.1562 l 0,-5.875 c 0,-1.1886 0.96769,-2.1563 2.15625,-2.1563 z m 92,0 7.375,0 c 1.18855,0 2.15625,0.9677 2.15625,2.1563 l 0,5.875 c 0,1.1886 -0.9677,2.1562 -2.15625,2.1562 l -7.375,0 c -1.18856,0 -2.15625,-0.9676 -2.15625,-2.1562 l 0,-5.875 c 0,-1.1886 0.96769,-2.1563 2.15625,-2.1563 z m -92,14 7.375,0 c 1.188559,0 2.15625,0.9677 2.15625,2.1563 l 0,5.875 c 0,1.1886 -0.967691,2.1562 -2.15625,2.1562 l -7.375,0 c -1.18856,0 -2.15625,-0.9676 -2.15625,-2.1562 l 0,-5.875 c 0,-1.1886 0.96769,-2.1563 2.15625,-2.1563 z m 92,0 7.375,0 c 1.18855,0 2.15625,0.9677 2.15625,2.1563 l 0,5.875 c 0,1.1886 -0.9677,2.1562 -2.15625,2.1562 l -7.375,0 c -1.18856,0 -2.15625,-0.9676 -2.15625,-2.1562 l 0,-5.875 c 0,-1.1886 0.96769,-2.1563 2.15625,-2.1563 z"
       style="fill:#2d2d2d;fill-opacity:1;stroke:none"
       inkscape:connector-curvature="0" />
    <path
       style="fill:url(#linearGradient3128);fill-opacity:1;stroke:none;stroke-width:1.39152681999999994;stroke-opacity:1"
       d="M 12 9.1875 C 8.9365651 9.1875 6.46875 11.655315 6.46875 14.71875 L 6.46875 114.15625 C 6.46875 117.21968 8.9365651 119.6875 12 119.6875 L 116 119.6875 C 119.06343 119.6875 121.53125 117.21968 121.53125 114.15625 L 121.53125 14.71875 C 121.53125 11.655315 119.06343 9.1875 116 9.1875 L 12 9.1875 z M 14.3125 17.65625 L 21.6875 17.65625 C 22.876059 17.65625 23.84375 18.62395 23.84375 19.8125 L 23.84375 25.6875 C 23.84375 26.87606 22.876059 27.84375 21.6875 27.84375 L 14.3125 27.84375 C 13.12394 27.84375 12.15625 26.87606 12.15625 25.6875 L 12.15625 19.8125 C 12.15625 18.62395 13.12394 17.65625 14.3125 17.65625 z M 106.3125 17.65625 L 113.6875 17.65625 C 114.87605 17.65625 115.84375 18.62395 115.84375 19.8125 L 115.84375 25.6875 C 115.84375 26.87606 114.87605 27.84375 113.6875 27.84375 L 106.3125 27.84375 C 105.12394 27.84375 104.15625 26.87606 104.15625 25.6875 L 104.15625 19.8125 C 104.15625 18.62395 105.12394 17.65625 106.3125 17.65625 z M 14.3125 31.65625 L 21.6875 31.65625 C 22.876059 31.65625 23.84375 32.62395 23.84375 33.8125 L 23.84375 39.6875 C 23.84375 40.87606 22.876059 41.84375 21.6875 41.84375 L 14.3125 41.84375 C 13.12394 41.84375 12.15625 40.87606 12.15625 39.6875 L 12.15625 33.8125 C 12.15625 32.62395 13.12394 31.65625 14.3125 31.65625 z M 106.3125 31.65625 L 113.6875 31.65625 C 114.87605 31.65625 115.84375 32.62395 115.84375 33.8125 L 115.84375 39.6875 C 115.84375 40.87606 114.87605 41.84375 113.6875 41.84375 L 106.3125 41.84375 C 105.12394 41.84375 104.15625 40.87606 104.15625 39.6875 L 104.15625 33.8125 C 104.15625 32.62395 105.12394 31.65625 106.3125 31.65625 z M 14.3125 45.65625 L 21.6875 45.65625 C 22.876059 45.65625 23.84375 46.62395 23.84375 47.8125 L 23.84375 53.6875 C 23.84375 54.87606 22.876059 55.84375 21.6875 55.84375 L 14.3125 55.84375 C 13.12394 55.84375 12.15625 54.87606 12.15625 53.6875 L 12.15625 47.8125 C 12.15625 46.62395 13.12394 45.65625 14.3125 45.65625 z M 106.3125 45.65625 L 113.6875 45.65625 C 114.87605 45.65625 115.84375 46.62395 115.84375 47.8125 L 115.84375 53.6875 C 115.84375 54.87606 114.87605 55.84375 113.6875 55.84375 L 106.3125 55.84375 C 105.12394 55.84375 104.15625 54.87606 104.15625 53.6875 L 104.15625 47.8125 C 104.15625 46.62395 105.12394 45.65625 106.3125 45.65625 z M 14.3125 59.65625 L 21.6875 59.65625 C 22.876059 59.65625 23.84375 60.62395 23.84375 61.8125 L 23.84375 67.6875 C 23.84375 68.87606 22.876059 69.84375 21.6875 69.84375 L 14.3125 69.84375 C 13.12394 69.84375 12.15625 68.87606 12.15625 67.6875 L 12.15625 61.8125 C 12.15625 60.62395 13.12394 59.65625 14.3125 59.65625 z M 106.3125 59.65625 L 113.6875 59.65625 C 114.87605 59.65625 115.84375 60.62395 115.84375 61.8125 L 115.84375 67.6875 C 115.84375 68.87606 114.87605 69.84375 113.6875 69.84375 L 106.3125 69.84375 C 105.12394 69.84375 104.15625 68.87606 104.15625 67.6875 L 104.15625 61.8125 C 104.15625 60.62395 105.12394 59.65625 106.3125 59.65625 z M 14.3125 73.65625 L 21.6875 73.65625 C 22.876059 73.65625 23.84375 74.6239 23.84375 75.8125 L 23.84375 81.6875 C 23.84375 82.876 22.876059 83.84375 21.6875 83.84375 L 14.3125 83.84375 C 13.12394 83.84375 12.15625 82.876 12.15625 81.6875 L 12.15625 75.8125 C 12.15625 74.6239 13.12394 73.65625 14.3125 73.65625 z M 106.3125 73.65625 L 113.6875 73.65625 C 114.87605 73.65625 115.84375 74.6239 115.84375 75.8125 L 115.84375 81.6875 C 115.84375 82.876 114.87605 83.84375 113.6875 83.84375 L 106.3125 83.84375 C 105.12394 83.84375 104.15625 82.876 104.15625 81.6875 L 104.15625 75.8125 C 104.15625 74.6239 105.12394 73.65625 106.3125 73.65625 z M 14.3125 87.65625 L 21.6875 87.65625 C 22.876059 87.65625 23.84375 88.6239 23.84375 89.8125 L 23.84375 95.6875 C 23.84375 96.8761 22.876059 97.84375 21.6875 97.84375 L 14.3125 97.84375 C 13.12394 97.84375 12.15625 96.8761 12.15625 95.6875 L 12.15625 89.8125 C 12.15625 88.6239 13.12394 87.65625 14.3125 87.65625 z M 106.3125 87.65625 L 113.6875 87.65625 C 114.87605 87.65625 115.84375 88.6239 115.84375 89.8125 L 115.84375 95.6875 C 115.84375 96.8761 114.87605 97.84375 113.6875 97.84375 L 106.3125 97.84375 C 105.12394 97.84375 104.15625 96.8761 104.15625 95.6875 L 104.15625 89.8125 C 104.15625 88.6239 105.12394 87.65625 106.3125 87.65625 z M 14.3125 101.65625 L 21.6875 101.65625 C 22.876059 101.65625 23.84375 102.6239 23.84375 103.8125 L 23.84375 109.6875 C 23.84375 110.8761 22.876059 111.84375 21.6875 111.84375 L 14.3125 111.84375 C 13.12394 111.84375 12.15625 110.8761 12.15625 109.6875 L 12.15625 103.8125 C 12.15625 102.6239 13.12394 101.65625 14.3125 101.65625 z M 106.3125 101.65625 L 113.6875 101.65625 C 114.87605 101.65625 115.84375 102.6239 115.84375 103.8125 L 115.84375 109.6875 C 115.84375 110.8761 114.87605 111.84375 113.6875 111.84375 L 106.3125 111.84375 C 105.12394 111.84375 104.15625 110.8761 104.15625 109.6875 L 104.15625 103.8125 C 104.15625 102.6239 105.12394 101.65625 106.3125 101.65625 z "
       transform="translate(0,924.36218)"
       id="rect3936" />
    <path
       style="fill:none;stroke:url(#linearGradient3072);stroke-width:1.5;fill-opacity:1"
       d="m 100.1886,934.28951 -71.505197,0 0,108.20219 71.505197,0 0,-108.20219 z"
       id="path3023"
       inkscape:connector-curvature="0" />
    <path
       inkscape:connector-curvature="0"
       id="path3850"
       d="m 63.24462,1022.4084 c -2.210574,-1.0942 -2.645209,-1.682 -1.683426,-2.2764 1.173526,-0.7253 0.502064,-4.9411 -1.542226,-9.6827 -2.009529,-4.6613 -2.036903,-4.8048 -1.113009,-5.8357 2.156595,-2.4063 2.045012,-2.5411 -1.795847,-2.1696 -10.665335,1.0313 -12.538565,1.3656 -16.219141,2.8942 -4.847361,2.0133 -8.854398,3.2124 -8.854398,2.6496 0,-0.2385 0.640995,-0.6136 1.424433,-0.8332 l 1.424433,-0.3992 -1.510366,-0.3044 c -1.506192,-0.3036 -1.501892,-0.31 1.553926,-2.3262 1.685365,-1.112 6.444089,-5.3523 10.574949,-9.4226 7.431292,-7.32263 15.122467,-13.43474 20.043516,-15.92844 1.473511,-0.74668 2.802481,-1.86057 3.162465,-2.65064 0.3415,-0.7495 0.620908,-3.53469 0.620908,-6.18928 0,-5.62727 0.76549,-7.12314 4.166638,-8.14214 1.90015,-0.56931 2.212224,-0.50337 4.57779,0.96714 1.575832,0.97958 3.591283,1.70858 5.314205,1.92215 6.867208,0.85124 12.59698,2.72159 13.67343,4.46333 0.193966,0.31385 -0.324322,0.22053 -1.151755,-0.20734 -4.482034,-2.31778 -13.225972,-3.14782 -16.548902,-1.571 -2.718006,1.28979 -2.930418,2.10654 -1.96854,7.56939 1.304682,7.40984 0.3863,13.32513 -2.696258,17.36653 -0.740716,0.9712 -2.75574,2.803 -4.477833,4.0707 -1.722095,1.2677 -3.434548,2.8898 -3.80545,3.6048 -0.370903,0.7149 -1.124024,1.8715 -1.673606,2.5702 -0.859427,1.0925 -1.0069,2.1866 -1.053989,7.8196 -0.03449,4.1269 0.158459,6.8061 0.521712,7.244 0.317051,0.3818 0.431784,1.2708 0.254964,1.9754 -0.3609,1.4378 0.77936,2.3584 2.921626,2.3584 0.676498,0 1.682447,0.3422 2.23545,0.7605 0.927798,0.7017 0.80542,0.7617 -1.584421,0.7765 -1.617592,0.01 -3.416321,-0.393 -4.791278,-1.0736 z M 62.028,1008.866 c -0.02781,-0.926 0.119573,-2.6741 0.327506,-3.8849 0.424692,-2.4729 -0.22722,-2.9338 -1.304023,-0.9218 -0.8116,1.5165 -0.823002,3.9319 -0.0256,5.4219 0.800274,1.4952 1.060693,1.3354 1.002124,-0.6152 z"
       style="fill:#2d2d2d;fill-opacity:1;stroke:#2d2d2d;stroke-width:0.25" />
  </g>
</svg>
