<?xml version="1.0" encoding="UTF-8" standalone="no"?>
<!-- Created with Inkscape (http://www.inkscape.org/) -->

<svg
   xmlns:dc="http://purl.org/dc/elements/1.1/"
   xmlns:cc="http://creativecommons.org/ns#"
   xmlns:rdf="http://www.w3.org/1999/02/22-rdf-syntax-ns#"
   xmlns:svg="http://www.w3.org/2000/svg"
   xmlns="http://www.w3.org/2000/svg"
   xmlns:xlink="http://www.w3.org/1999/xlink"
   xmlns:sodipodi="http://sodipodi.sourceforge.net/DTD/sodipodi-0.dtd"
   xmlns:inkscape="http://www.inkscape.org/namespaces/inkscape"
   width="128"
   height="128"
   id="svg2"
   version="1.1"
   inkscape:version="0.48.2 r9819"
   sodipodi:docname="curlew.svg">
  <defs
     id="defs4">
    <linearGradient
       inkscape:collect="always"
       id="linearGradient3805">
      <stop
         style="stop-color:#aa4400;stop-opacity:1;"
         offset="0"
         id="stop3807" />
      <stop
         style="stop-color:#aa4400;stop-opacity:0;"
         offset="1"
         id="stop3809" />
    </linearGradient>
    <linearGradient
       inkscape:collect="always"
       id="linearGradient3945">
      <stop
         style="stop-color:#ffffff;stop-opacity:1;"
         offset="0"
         id="stop3947" />
      <stop
         style="stop-color:#ffffff;stop-opacity:0;"
         offset="1"
         id="stop3949" />
    </linearGradient>
    <linearGradient
       id="linearGradient3938">
      <stop
         style="stop-color:#aa4400;stop-opacity:1"
         offset="0"
         id="stop3940" />
      <stop
         id="stop2996"
         offset="0.62856132"
         style="stop-color:#ff7f2a;stop-opacity:1" />
      <stop
         style="stop-color:#ff7f2a;stop-opacity:1"
         offset="1"
         id="stop3942" />
    </linearGradient>
    <linearGradient
       inkscape:collect="always"
       id="linearGradient3912">
      <stop
         style="stop-color:#ffffff;stop-opacity:1;"
         offset="0"
         id="stop3914" />
      <stop
         style="stop-color:#ffffff;stop-opacity:0;"
         offset="1"
         id="stop3916" />
    </linearGradient>
    <linearGradient
       inkscape:collect="always"
       id="linearGradient3031">
      <stop
         style="stop-color:#ffffff;stop-opacity:1;"
         offset="0"
         id="stop3033" />
      <stop
         style="stop-color:#ffffff;stop-opacity:0;"
         offset="1"
         id="stop3035" />
    </linearGradient>
    <linearGradient
       inkscape:collect="always"
       xlink:href="#linearGradient3031"
       id="linearGradient3883"
       gradientUnits="userSpaceOnUse"
       gradientTransform="translate(0.92654529,924.36218)"
       x1="34.569664"
       y1="-1.7484819"
       x2="54.772717"
       y2="65.146065" />
    <linearGradient
       inkscape:collect="always"
       xlink:href="#linearGradient3912"
       id="linearGradient3918"
       x1="30.529053"
       y1="-3.5443091"
       x2="55.670628"
       y2="65.595016"
       gradientUnits="userSpaceOnUse" />
    <linearGradient
       inkscape:collect="always"
       xlink:href="#linearGradient3938"
       id="linearGradient3944"
       x1="65.547668"
       y1="1048.3217"
       x2="64.649757"
       y2="925.01477"
       gradientUnits="userSpaceOnUse"
       gradientTransform="matrix(1,0,0,0.96067588,0,38.866467)" />
    <linearGradient
       inkscape:collect="always"
       xlink:href="#linearGradient3945"
       id="linearGradient3951"
       x1="67.453972"
       y1="926.39392"
       x2="67.860321"
       y2="965.40344"
       gradientUnits="userSpaceOnUse" />
    <filter
       inkscape:collect="always"
       id="filter3882">
      <feGaussianBlur
         inkscape:collect="always"
         stdDeviation="1.215619"
         id="feGaussianBlur3884" />
    </filter>
    <linearGradient
       inkscape:collect="always"
       xlink:href="#linearGradient3805"
       id="linearGradient3811"
       x1="67.283806"
       y1="952.90613"
       x2="67.283806"
       y2="929.29309"
       gradientUnits="userSpaceOnUse" />
    <linearGradient
       inkscape:collect="always"
       xlink:href="#linearGradient3938"
       id="linearGradient3884"
       gradientUnits="userSpaceOnUse"
       gradientTransform="matrix(1,0,0,0.96067588,0,38.866467)"
       x1="65.547668"
       y1="1048.3217"
       x2="64.649757"
       y2="925.01477" />
    <linearGradient
       inkscape:collect="always"
       xlink:href="#linearGradient3805"
       id="linearGradient3886"
       gradientUnits="userSpaceOnUse"
       x1="67.283806"
       y1="952.90613"
       x2="67.283806"
       y2="929.29309" />
    <linearGradient
       inkscape:collect="always"
       xlink:href="#linearGradient3805"
       id="linearGradient3891"
       gradientUnits="userSpaceOnUse"
       x1="67.283806"
       y1="952.90613"
       x2="67.283806"
       y2="929.29309"
       gradientTransform="translate(0,-1.7875976e-5)" />
    <linearGradient
       inkscape:collect="always"
       xlink:href="#linearGradient3938"
       id="linearGradient3907"
       gradientUnits="userSpaceOnUse"
       gradientTransform="matrix(1,0,0,0.96067588,0,38.866449)"
       x1="65.547668"
       y1="1048.3217"
       x2="64.649757"
       y2="925.01477" />
  </defs>
  <sodipodi:namedview
     id="base"
     pagecolor="#ffffff"
     bordercolor="#666666"
     borderopacity="1.0"
     inkscape:pageopacity="0.0"
     inkscape:pageshadow="2"
     inkscape:zoom="3.2346643"
     inkscape:cx="80.763068"
     inkscape:cy="57.109832"
     inkscape:document-units="px"
     inkscape:current-layer="layer1"
     showgrid="false"
     inkscape:window-width="1440"
     inkscape:window-height="846"
     inkscape:window-x="-1"
     inkscape:window-y="26"
     inkscape:window-maximized="1"
     inkscape:snap-to-guides="false" />
  <metadata
     id="metadata7">
    <rdf:RDF>
      <cc:Work
         rdf:about="">
        <dc:format>image/svg+xml</dc:format>
        <dc:type
           rdf:resource="http://purl.org/dc/dcmitype/StillImage" />
        <dc:title></dc:title>
      </cc:Work>
    </rdf:RDF>
  </metadata>
  <g
     inkscape:label="Layer 1"
     inkscape:groupmode="layer"
     id="layer1"
     transform="translate(0,-924.36218)">
    <rect
       ry="5.9607177"
       y="928.80029"
       x="2"
       height="119.12381"
       width="124"
       id="rect3856"
       style="fill:#000000;fill-opacity:1;stroke:none;filter:url(#filter3882)" />
    <rect
       style="fill:url(#linearGradient3907);fill-opacity:1;stroke:none"
       id="rect3936"
       width="124"
       height="119.12381"
       x="2"
       y="928.80029"
       ry="5.9607177" />
    <g
       id="g3849"
       transform="translate(0.41904412,-1.7875976e-5)">
      <g
         transform="matrix(1,0,0,0.89603651,7.4190424e-6,105.59247)"
         id="g3061">
        <rect
           ry="4.1729665"
           y="926.4574"
           x="107.28254"
           height="17.473017"
           width="12.596826"
           id="rect3044"
           style="opacity:0.23420075;fill:#800000;fill-opacity:1;stroke:#ffb380;stroke-width:1.5;stroke-opacity:1" />
        <rect
           style="opacity:0.23420075;fill:#800000;fill-opacity:1;stroke:#ffb380;stroke-width:1.5;stroke-opacity:1"
           id="rect3046"
           width="12.596826"
           height="17.473017"
           x="107.28254"
           y="950.4574"
           ry="4.1729665" />
        <rect
           ry="4.1729665"
           y="976.4574"
           x="107.28254"
           height="17.473017"
           width="12.596826"
           id="rect3048"
           style="opacity:0.23420075;fill:#800000;fill-opacity:1;stroke:#ffb380;stroke-width:1.5;stroke-opacity:1" />
        <rect
           style="opacity:0.23420075;fill:#800000;fill-opacity:1;stroke:#ffb380;stroke-width:1.5;stroke-opacity:1"
           id="rect3050"
           width="12.596826"
           height="17.473017"
           x="107.28254"
           y="1002.4574"
           ry="4.1729665" />
        <rect
           ry="4.1729665"
           y="1026.4574"
           x="107.28254"
           height="17.473017"
           width="12.596826"
           id="rect3052"
           style="opacity:0.23420075;fill:#800000;fill-opacity:1;stroke:#ffb380;stroke-width:1.5;stroke-opacity:1" />
      </g>
      <g
         id="g3837"
         transform="matrix(1,0,0,0.89603651,-100,105.59247)">
        <rect
           style="opacity:0.23420075;fill:#800000;fill-opacity:1;stroke:#ffb380;stroke-width:1.5;stroke-opacity:1"
           id="rect3839"
           width="12.596826"
           height="17.473017"
           x="107.28254"
           y="926.4574"
           ry="4.1729665" />
        <rect
           ry="4.1729665"
           y="950.4574"
           x="107.28254"
           height="17.473017"
           width="12.596826"
           id="rect3841"
           style="opacity:0.23420075;fill:#800000;fill-opacity:1;stroke:#ffb380;stroke-width:1.5;stroke-opacity:1" />
        <rect
           style="opacity:0.23420075;fill:#800000;fill-opacity:1;stroke:#ffb380;stroke-width:1.5;stroke-opacity:1"
           id="rect3843"
           width="12.596826"
           height="17.473017"
           x="107.28254"
           y="976.4574"
           ry="4.1729665" />
        <rect
           ry="4.1729665"
           y="1002.4574"
           x="107.28254"
           height="17.473017"
           width="12.596826"
           id="rect3845"
           style="opacity:0.23420075;fill:#800000;fill-opacity:1;stroke:#ffb380;stroke-width:1.5;stroke-opacity:1" />
        <rect
           style="opacity:0.23420075;fill:#800000;fill-opacity:1;stroke:#ffb380;stroke-width:1.5;stroke-opacity:1"
           id="rect3847"
           width="12.596826"
           height="17.473017"
           x="107.28254"
           y="1026.4574"
           ry="4.1729665" />
      </g>
    </g>
    <path
       style="fill:none;stroke:url(#linearGradient3891);stroke-width:1.5"
       d="m 102.84375,929.30027 -77.6875,0 0,58.57897 77.6875,0 0,-58.57897 z"
       id="path3023"
       inkscape:connector-curvature="0" />
    <path
       inkscape:connector-curvature="0"
       id="path3027"
       d="m 102.84375,993.47131 -77.6875,0 0,53.70279 77.6875,0 0,-53.70279 z"
       style="fill:none;stroke:#aa4400;stroke-width:1.5" />
    <path
       style="fill:#333333;fill-opacity:1"
       d="m 61.870442,1036.4612 c -3.551618,-1.758 -4.249925,-2.7022 -2.704676,-3.6574 1.885444,-1.1651 0.806641,-7.9385 -2.477818,-15.5567 -3.228608,-7.489 -3.272589,-7.7195 -1.788215,-9.3758 3.464894,-3.8661 3.285618,-4.0826 -2.885297,-3.4859 -17.135456,1.6571 -20.145079,2.1941 -26.058477,4.6501 -7.788009,3.2346 -14.225915,5.1611 -14.225915,4.257 0,-0.3834 1.029854,-0.9858 2.288564,-1.3387 l 2.288565,-0.6414 -2.426629,-0.489 c -2.419923,-0.4879 -2.413014,-0.498 2.496616,-3.7374 2.70779,-1.7866 10.353392,-8.59928 16.990237,-15.13893 11.939482,-11.76485 24.296508,-21.58487 32.202907,-25.59137 2.367417,-1.19964 4.502606,-2.98927 5.080974,-4.25865 0.548673,-1.20418 0.997582,-5.679 0.997582,-9.94401 0,-9.04104 1.229875,-11.44438 6.694328,-13.08156 3.052874,-0.91467 3.554268,-0.80874 7.354903,1.55385 2.531812,1.57386 5.769934,2.7451 8.538067,3.08823 11.033192,1.36765 20.238932,4.37263 21.968412,7.17101 0.31163,0.50423 -0.52108,0.35431 -1.85047,-0.33313 -7.20106,-3.72385 -21.249501,-5.05745 -26.588285,-2.52403 -4.366884,2.07223 -4.708155,3.38445 -3.162756,12.16136 2.096167,11.90501 0.62065,21.4088 -4.33194,27.90198 -1.190071,1.56025 -4.427509,4.50331 -7.19431,6.54011 -2.766802,2.0368 -5.518114,4.64295 -6.114025,5.79164 -0.59591,1.1486 -1.805912,3.0069 -2.688898,4.1294 -1.380798,1.7553 -1.617735,3.5132 -1.69339,12.5635 -0.05542,6.6304 0.254588,10.935 0.838208,11.6384 0.50939,0.6135 0.693725,2.0418 0.409637,3.1739 -0.57984,2.3099 1.25216,3.789 4.69403,3.789 1.086894,0 2.703103,0.5498 3.591585,1.2219 1.490646,1.1273 1.294027,1.2238 -2.54561,1.2476 -2.598904,0.016 -5.48883,-0.6315 -7.697904,-1.725 z m -1.954683,-21.7579 c -0.04467,-1.4876 0.192112,-4.2962 0.526188,-6.2415 0.682331,-3.9731 -0.365063,-4.7137 -2.095108,-1.4811 -1.303957,2.4365 -1.322276,6.3171 -0.04113,8.711 1.28576,2.4023 1.704163,2.1456 1.610062,-0.9884 z"
       id="path2998"
       inkscape:connector-curvature="0" />
  </g>
</svg>
