<?xml version="1.0" encoding="UTF-8" standalone="no"?>
<!-- Created with Inkscape (http://www.inkscape.org/) -->

<svg
   xmlns:dc="http://purl.org/dc/elements/1.1/"
   xmlns:cc="http://creativecommons.org/ns#"
   xmlns:rdf="http://www.w3.org/1999/02/22-rdf-syntax-ns#"
   xmlns:svg="http://www.w3.org/2000/svg"
   xmlns="http://www.w3.org/2000/svg"
   xmlns:xlink="http://www.w3.org/1999/xlink"
   xmlns:sodipodi="http://sodipodi.sourceforge.net/DTD/sodipodi-0.dtd"
   xmlns:inkscape="http://www.inkscape.org/namespaces/inkscape"
   version="1.0"
   width="128"
   height="128"
   id="svg11300"
   style="display:inline;enable-background:new"
   inkscape:version="0.48.3.1 r9886"
   sodipodi:docname="add.svg">
  <metadata
     id="metadata62">
    <rdf:RDF>
      <cc:Work
         rdf:about="">
        <dc:format>image/svg+xml</dc:format>
        <dc:type
           rdf:resource="http://purl.org/dc/dcmitype/StillImage" />
        <dc:title>Candy Icon Theme</dc:title>
      </cc:Work>
    </rdf:RDF>
  </metadata>
  <sodipodi:namedview
     pagecolor="#ffffff"
     bordercolor="#666666"
     borderopacity="1"
     objecttolerance="10"
     gridtolerance="10"
     guidetolerance="10"
     inkscape:pageopacity="0"
     inkscape:pageshadow="2"
     inkscape:window-width="1600"
     inkscape:window-height="845"
     id="namedview60"
     showgrid="false"
     inkscape:zoom="3.5963009"
     inkscape:cx="64"
     inkscape:cy="64"
     inkscape:window-x="-2"
     inkscape:window-y="-3"
     inkscape:window-maximized="1"
     inkscape:current-layer="layer2" />
  <title
     id="title2897">Candy Icon Theme</title>
  <defs
     id="defs3">
    <linearGradient
       id="linearGradient3616">
      <stop
         id="stop3618"
         style="stop-color:#000000;stop-opacity:0"
         offset="0" />
      <stop
         id="stop3620"
         style="stop-color:#000000;stop-opacity:1"
         offset="1" />
    </linearGradient>
    <linearGradient
       id="linearGradient2831-3">
      <stop
         id="stop2833-9"
         style="stop-color:#729fcf;stop-opacity:1"
         offset="0" />
      <stop
         id="stop2835-7"
         style="stop-color:#729fcf;stop-opacity:0"
         offset="1" />
    </linearGradient>
    <linearGradient
       id="linearGradient3922">
      <stop
         id="stop3924"
         style="stop-color:#0974dd;stop-opacity:1;"
         offset="0" />
      <stop
         id="stop3926"
         style="stop-color:#6da3dd;stop-opacity:1"
         offset="1" />
    </linearGradient>
    <linearGradient
       id="linearGradient3596">
      <stop
         id="stop3598"
         style="stop-color:#1e1e1e;stop-opacity:1"
         offset="0" />
      <stop
         id="stop3600"
         style="stop-color:#505050;stop-opacity:1"
         offset="1" />
    </linearGradient>
    <linearGradient
       id="linearGradient3652">
      <stop
         id="stop3654"
         style="stop-color:#000000;stop-opacity:1"
         offset="0" />
      <stop
         id="stop3656"
         style="stop-color:#323232;stop-opacity:1"
         offset="1" />
    </linearGradient>
    <linearGradient
       id="linearGradient5594">
      <stop
         id="stop5596"
         style="stop-color:#ffffff;stop-opacity:1"
         offset="0" />
      <stop
         id="stop5598"
         style="stop-color:#ffffff;stop-opacity:0"
         offset="1" />
    </linearGradient>
    <linearGradient
       id="linearGradient3667">
      <stop
         id="stop3669"
         style="stop-color:#2b4561;stop-opacity:1"
         offset="0" />
      <stop
         id="stop3671"
         style="stop-color:#4a85c4;stop-opacity:1"
         offset="1" />
    </linearGradient>
    <linearGradient
       x1="158"
       y1="6"
       x2="158"
       y2="-38"
       id="linearGradient4739"
       xlink:href="#linearGradient3667"
       gradientUnits="userSpaceOnUse"
       gradientTransform="matrix(2.6923077,0,0,1,-358.38462,118)" />
    <radialGradient
       cx="158"
       cy="8.3000002"
       r="14"
       fx="158"
       fy="8.3000002"
       id="radialGradient4742"
       xlink:href="#linearGradient5594"
       gradientUnits="userSpaceOnUse"
       gradientTransform="matrix(2.5714285,0,0,0.35714282,-339.2857,14.035715)" />
    <radialGradient
       cx="158"
       cy="11.484326"
       r="19"
       fx="158"
       fy="11.484326"
       id="radialGradient4745"
       xlink:href="#linearGradient5594"
       gradientUnits="userSpaceOnUse"
       gradientTransform="matrix(3.1024933,6.2386781e-8,-5.0740095e-8,4.5633972,-423.19392,-25.021195)" />
    <radialGradient
       cx="158"
       cy="11.484326"
       r="19"
       fx="158"
       fy="11.484326"
       id="radialGradient4748"
       xlink:href="#linearGradient3616"
       gradientUnits="userSpaceOnUse"
       gradientTransform="matrix(3.1024933,6.2386777e-8,-5.0740095e-8,4.5633971,-423.19391,-25.021195)" />
    <linearGradient
       x1="14.875"
       y1="37.75"
       x2="23.375"
       y2="37.75"
       id="linearGradient4754"
       xlink:href="#linearGradient2831-3"
       gradientUnits="userSpaceOnUse"
       gradientTransform="matrix(4.703535,0,1.8141274,4.9090907,-79.43726,-128.81816)" />
    <linearGradient
       x1="158"
       y1="49"
       x2="158"
       y2="5"
       id="linearGradient4759"
       xlink:href="#linearGradient3667"
       gradientUnits="userSpaceOnUse"
       gradientTransform="matrix(2.6923077,0,0,1,-358.38462,9.9999943)" />
    <linearGradient
       x1="158"
       y1="49"
       x2="158"
       y2="5"
       id="linearGradient4766"
       xlink:href="#linearGradient3922"
       gradientUnits="userSpaceOnUse"
       gradientTransform="matrix(2.5000001,0,0,2.5681818,-328.00001,0.15909)" />
    <linearGradient
       x1="158"
       y1="49"
       x2="158"
       y2="5"
       id="linearGradient4769"
       xlink:href="#linearGradient3596"
       gradientUnits="userSpaceOnUse"
       gradientTransform="matrix(2.7714289,0,0,2.6046512,-373.88573,-2.8255809)" />
    <linearGradient
       x1="155"
       y1="49"
       x2="155"
       y2="5"
       id="linearGradient4771"
       xlink:href="#linearGradient3652"
       gradientUnits="userSpaceOnUse"
       gradientTransform="matrix(2.7714289,0,0,2.6046512,-373.88573,-2.8255809)" />
    <filter
       x="-0.085959181"
       y="-0.84240001"
       width="1.1719184"
       height="2.6847999"
       color-interpolation-filters="sRGB"
       id="filter4905">
      <feGaussianBlur
         stdDeviation="3.51"
         id="feGaussianBlur4907" />
    </filter>
    <radialGradient
       cx="24.377031"
       cy="45.941494"
       r="23.076923"
       fx="24.377031"
       fy="45.941494"
       id="radialGradient2666"
       xlink:href="#linearGradient3476"
       gradientUnits="userSpaceOnUse"
       gradientTransform="matrix(1,0,0,0.1455399,0,39.255173)" />
    <linearGradient
       id="linearGradient3476">
      <stop
         id="stop3478"
         style="stop-color:#2e3436;stop-opacity:1"
         offset="0" />
      <stop
         id="stop3480"
         style="stop-color:#2e3436;stop-opacity:0"
         offset="1" />
    </linearGradient>
    <linearGradient
       x1="43.78125"
       y1="4.21875"
       x2="43.78125"
       y2="43.78125"
       id="linearGradient2904"
       xlink:href="#linearGradient3433"
       gradientUnits="userSpaceOnUse" />
    <linearGradient
       id="linearGradient3433">
      <stop
         id="stop3435"
         style="stop-color:#ffffff;stop-opacity:0.80000001"
         offset="0" />
      <stop
         id="stop3437"
         style="stop-color:#ffffff;stop-opacity:0"
         offset="1" />
    </linearGradient>
    <linearGradient
       x1="4.09375"
       y1="-58.012062"
       x2="15.29774"
       y2="33.906113"
       id="linearGradient2906"
       xlink:href="#linearGradient3456"
       gradientUnits="userSpaceOnUse"
       gradientTransform="translate(0.7063923,-1.4999995)" />
    <linearGradient
       id="linearGradient3456">
      <stop
         id="stop3458"
         style="stop-color:#eeeeec;stop-opacity:1"
         offset="0" />
      <stop
         id="stop3460"
         style="stop-color:#eeeeec;stop-opacity:0"
         offset="1" />
    </linearGradient>
    <linearGradient
       gradientUnits="userSpaceOnUse"
       xlink:href="#linearGradient3612"
       id="linearGradient2966"
       y2="122.5479"
       x2="65"
       y1="12.734366"
       x1="65" />
    <linearGradient
       gradientUnits="userSpaceOnUse"
       xlink:href="#linearGradient3596-2"
       id="linearGradient2964"
       y2="122.18903"
       x2="70"
       y1="12.375499"
       x1="70" />
    <radialGradient
       gradientTransform="matrix(1.2331012,0,0,1.3636364,-15.659605,-9.0909083)"
       gradientUnits="userSpaceOnUse"
       xlink:href="#linearGradient3626"
       id="radialGradient2961"
       fy="25"
       fx="67.179436"
       r="55"
       cy="25"
       cx="67.179436" />
    <radialGradient
       gradientTransform="matrix(1.1906896,-3.0420191e-8,3.2516124e-8,1.2727273,-12.810416,-6.8181798)"
       gradientUnits="userSpaceOnUse"
       xlink:href="#linearGradient3638"
       id="radialGradient2958"
       fy="21.071428"
       fx="67.179436"
       r="55"
       cy="21.071428"
       cx="67.179436" />
    <radialGradient
       gradientTransform="matrix(7.3673458,-7.7912402e-7,2.2260693e-7,0.28571421,-1095.6121,45.00012)"
       gradientUnits="userSpaceOnUse"
       xlink:href="#linearGradient3638"
       id="radialGradient2955"
       fy="31.500013"
       fx="158"
       r="7"
       cy="31.500013"
       cx="158" />
    <radialGradient
       gradientTransform="matrix(7.5612233,-7.7912402e-7,2.2846501e-7,0.28571421,-1260.6019,45.00012)"
       gradientUnits="userSpaceOnUse"
       xlink:href="#linearGradient3638"
       id="radialGradient2952"
       fy="31.500013"
       fx="158"
       r="7"
       cy="31.500013"
       cx="158" />
    <radialGradient
       gradientTransform="matrix(3,0,0,0.49999996,-407.00001,9.2500001)"
       gradientUnits="userSpaceOnUse"
       xlink:href="#linearGradient3638"
       id="radialGradient2949"
       fy="11.5"
       fx="158"
       r="5"
       cy="11.5"
       cx="158" />
    <filter
       id="filter3948"
       color-interpolation-filters="sRGB"
       height="2.6631999"
       width="1.51975"
       y="-0.83160001"
       x="-0.259875">
      <feGaussianBlur
         stdDeviation="3.465"
         id="feGaussianBlur3950" />
    </filter>
    <linearGradient
       id="linearGradient3638">
      <stop
         offset="0"
         style="stop-color:#ffffff;stop-opacity:1"
         id="stop3640" />
      <stop
         offset="1"
         style="stop-color:#ffffff;stop-opacity:0"
         id="stop3642" />
    </linearGradient>
    <linearGradient
       id="linearGradient3626">
      <stop
         offset="0"
         style="stop-color:#000000;stop-opacity:0"
         id="stop3628" />
      <stop
         offset="1"
         style="stop-color:#000000;stop-opacity:1"
         id="stop3630" />
    </linearGradient>
    <linearGradient
       id="linearGradient3612">
      <stop
         offset="0"
         style="stop-color:#abd14f;stop-opacity:1"
         id="stop3614" />
      <stop
         offset="1"
         style="stop-color:#4d7b4f;stop-opacity:1"
         id="stop3616" />
    </linearGradient>
    <linearGradient
       id="linearGradient3596-2">
      <stop
         offset="0"
         style="stop-color:#c5e774;stop-opacity:1"
         id="stop3598-4" />
      <stop
         offset="1"
         style="stop-color:#56ad58;stop-opacity:1"
         id="stop3600-3" />
    </linearGradient>
    <linearGradient
       inkscape:collect="always"
       xlink:href="#linearGradient3596-2"
       id="linearGradient3173"
       gradientUnits="userSpaceOnUse"
       x1="70"
       y1="12.375499"
       x2="70"
       y2="122.18903" />
    <linearGradient
       inkscape:collect="always"
       xlink:href="#linearGradient3612"
       id="linearGradient3175"
       gradientUnits="userSpaceOnUse"
       x1="65"
       y1="12.734366"
       x2="65"
       y2="122.5479" />
    <radialGradient
       inkscape:collect="always"
       xlink:href="#linearGradient3626"
       id="radialGradient3177"
       gradientUnits="userSpaceOnUse"
       gradientTransform="matrix(1.2331012,0,0,1.3636364,-15.659605,-9.0909083)"
       cx="67.179436"
       cy="25"
       fx="67.179436"
       fy="25"
       r="55" />
    <radialGradient
       inkscape:collect="always"
       xlink:href="#linearGradient3638"
       id="radialGradient3179"
       gradientUnits="userSpaceOnUse"
       gradientTransform="matrix(1.1906896,-3.0420191e-8,3.2516124e-8,1.2727273,-12.810416,-6.8181798)"
       cx="67.179436"
       cy="21.071428"
       fx="67.179436"
       fy="21.071428"
       r="55" />
    <radialGradient
       inkscape:collect="always"
       xlink:href="#linearGradient3638"
       id="radialGradient3181"
       gradientUnits="userSpaceOnUse"
       gradientTransform="matrix(7.3673458,-7.7912402e-7,2.2260693e-7,0.28571421,-1095.6121,45.00012)"
       cx="158"
       cy="31.500013"
       fx="158"
       fy="31.500013"
       r="7" />
    <radialGradient
       inkscape:collect="always"
       xlink:href="#linearGradient3638"
       id="radialGradient3183"
       gradientUnits="userSpaceOnUse"
       gradientTransform="matrix(7.5612233,-7.7912402e-7,2.2846501e-7,0.28571421,-1260.6019,45.00012)"
       cx="158"
       cy="31.500013"
       fx="158"
       fy="31.500013"
       r="7" />
    <radialGradient
       inkscape:collect="always"
       xlink:href="#linearGradient3638"
       id="radialGradient3185"
       gradientUnits="userSpaceOnUse"
       gradientTransform="matrix(3,0,0,0.49999996,-407.00001,9.2500001)"
       cx="158"
       cy="11.5"
       fx="158"
       fy="11.5"
       r="5" />
  </defs>
  <g
     transform="translate(-3,-4)"
     id="layer1"
     style="display:inline">
    <g
       id="layer6"
       style="display:none" />
    <rect
       width="98"
       height="10"
       rx="5"
       ry="5"
       x="18"
       y="115"
       id="rect4557"
       style="opacity:0.8;fill:#000000;fill-opacity:1;stroke:none;filter:url(#filter4905)" />
    <g
       id="g3996" />
    <g
       id="g4085" />
    <g
       transform="translate(-1,0)"
       id="g4238" />
    <g
       id="g4600" />
    <g
       id="g4909">
      <path
         d="m 20.5,15.5 c -1.108,0 -2,0.892 -2,2 l 0,104 c 0,1.108 0.892,2 2,2 l 93,0 c 1.108,0 2,-0.892 2,-2 l 0,-104 c 0,-1.108 -0.892,-2 -2,-2 l -1,0 0,1 c 0,0.554 -0.446,1 -1,1 l -6,0 c -0.554,0 -1,-0.446 -1,-1 l 0,-1 -75,0 0,1 c 0,0.554 -0.446,1 -1,1 l -6,0 c -0.554,0 -1,-0.446 -1,-1 l 0,-1 -1,0 z m 2,7 6,0 c 0.554,0 1,0.446 1,1 l 0,3 c 0,0.554 -0.446,1 -1,1 l -6,0 c -0.554,0 -1,-0.446 -1,-1 l 0,-3 c 0,-0.554 0.446,-1 1,-1 z m 83,0 6,0 c 0.554,0 1,0.446 1,1 l 0,3 c 0,0.554 -0.446,1 -1,1 l -6,0 c -0.554,0 -1,-0.446 -1,-1 l 0,-3 c 0,-0.554 0.446,-1 1,-1 z m -83,10 6,0 c 0.554,0 1,0.446 1,1 l 0,3 c 0,0.554 -0.446,1 -1,1 l -6,0 c -0.554,0 -1,-0.446 -1,-1 l 0,-3 c 0,-0.554 0.446,-1 1,-1 z m 83,0 6,0 c 0.554,0 1,0.446 1,1 l 0,3 c 0,0.554 -0.446,1 -1,1 l -6,0 c -0.554,0 -1,-0.446 -1,-1 l 0,-3 c 0,-0.554 0.446,-1 1,-1 z m -83,10 6,0 c 0.554,0 1,0.446 1,1 l 0,3 c 0,0.554 -0.446,1 -1,1 l -6,0 c -0.554,0 -1,-0.446 -1,-1 l 0,-3 c 0,-0.554 0.446,-1 1,-1 z m 83,0 6,0 c 0.554,0 1,0.446 1,1 l 0,3 c 0,0.554 -0.446,1 -1,1 l -6,0 c -0.554,0 -1,-0.446 -1,-1 l 0,-3 c 0,-0.554 0.446,-1 1,-1 z m -83,10 6,0 c 0.554,0 1,0.446 1,1 l 0,3 c 0,0.554 -0.446,1 -1,1 l -6,0 c -0.554,0 -1,-0.446 -1,-1 l 0,-3 c 0,-0.554 0.446,-1 1,-1 z m 83,0 6,0 c 0.554,0 1,0.446 1,1 l 0,3 c 0,0.554 -0.446,1 -1,1 l -6,0 c -0.554,0 -1,-0.446 -1,-1 l 0,-3 c 0,-0.554 0.446,-1 1,-1 z m -83,10 6,0 c 0.554,0 1,0.446 1,1 l 0,3 c 0,0.554 -0.446,1 -1,1 l -6,0 c -0.554,0 -1,-0.446 -1,-1 l 0,-3 c 0,-0.554 0.446,-1 1,-1 z m 83,0 6,0 c 0.554,0 1,0.446 1,1 l 0,3 c 0,0.554 -0.446,1 -1,1 l -6,0 c -0.554,0 -1,-0.446 -1,-1 l 0,-3 c 0,-0.554 0.446,-1 1,-1 z m -83,10 6,0 c 0.554,0 1,0.446 1,1 l 0,3 c 0,0.554 -0.446,1 -1,1 l -6,0 c -0.554,0 -1,-0.446 -1,-1 l 0,-3 c 0,-0.554 0.446,-1 1,-1 z m 83,0 6,0 c 0.554,0 1,0.446 1,1 l 0,3 c 0,0.554 -0.446,1 -1,1 l -6,0 c -0.554,0 -1,-0.446 -1,-1 l 0,-3 c 0,-0.554 0.446,-1 1,-1 z m -83,10 6,0 c 0.554,0 1,0.446 1,1 l 0,3 c 0,0.554 -0.446,1 -1,1 l -6,0 c -0.554,0 -1,-0.446 -1,-1 l 0,-3 c 0,-0.554 0.446,-1 1,-1 z m 83,0 6,0 c 0.554,0 1,0.446 1,1 l 0,3 c 0,0.554 -0.446,1 -1,1 l -6,0 c -0.554,0 -1,-0.446 -1,-1 l 0,-3 c 0,-0.554 0.446,-1 1,-1 z m -83,10 6,0 c 0.554,0 1,0.446 1,1 l 0,3 c 0,0.554 -0.446,1 -1,1 l -6,0 c -0.554,0 -1,-0.446 -1,-1 l 0,-3 c 0,-0.554 0.446,-1 1,-1 z m 83,0 6,0 c 0.554,0 1,0.446 1,1 l 0,3 c 0,0.554 -0.446,1 -1,1 l -6,0 c -0.554,0 -1,-0.446 -1,-1 l 0,-3 c 0,-0.554 0.446,-1 1,-1 z m -83,10 6,0 c 0.554,0 1,0.446 1,1 l 0,3 c 0,0.554 -0.446,1 -1,1 l -6,0 c -0.554,0 -1,-0.446 -1,-1 l 0,-3 c 0,-0.554 0.446,-1 1,-1 z m 83,0 6,0 c 0.554,0 1,0.446 1,1 l 0,3 c 0,0.554 -0.446,1 -1,1 l -6,0 c -0.554,0 -1,-0.446 -1,-1 l 0,-3 c 0,-0.554 0.446,-1 1,-1 z m -83,10 6,0 c 0.554,0 1,0.446 1,1 l 0,3 c 0,0.554 -0.446,1 -1,1 l -6,0 c -0.554,0 -1,-0.446 -1,-1 l 0,-3 c 0,-0.554 0.446,-1 1,-1 z m 83,0 6,0 c 0.554,0 1,0.446 1,1 l 0,3 c 0,0.554 -0.446,1 -1,1 l -6,0 c -0.554,0 -1,-0.446 -1,-1 l 0,-3 c 0,-0.554 0.446,-1 1,-1 z"
         id="rect3773"
         style="fill:url(#linearGradient4769);fill-opacity:1;stroke:url(#linearGradient4771);stroke-width:1;stroke-linejoin:round;stroke-miterlimit:4;stroke-opacity:1;stroke-dasharray:none" />
      <path
         d="m 32,15 0,22 70,0 0,-22 -70,0 z m 0,23 0,63 70,0 0,-63 -70,0 z m 0,64 0,22 70,0 0,-22 -70,0 z"
         id="path2958"
         style="fill:url(#linearGradient4766);fill-opacity:1;stroke:none" />
      <path
         d="m 90.9375,123.5 c -4.189171,-8.30363 -12.959544,-14 -23.1875,-14 -10.227223,0 -19.148464,5.69734 -23.5,14"
         id="path3935"
         style="opacity:0.5;color:#000000;fill:none;stroke:#729fcf;stroke-width:0.99999994;stroke-linecap:round;stroke-linejoin:round;stroke-miterlimit:4;stroke-opacity:1;stroke-dasharray:none;stroke-dashoffset:0;marker:none;visibility:visible;display:inline;overflow:visible;enable-background:new" />
      <path
         d="m 43.21875,15.5 c 4.263234,8.301535 13.013319,14 23.03125,14 10.018569,0 18.614517,-5.697608 22.71875,-14"
         id="path2962"
         style="opacity:0.5;color:#000000;fill:none;stroke:#729fcf;stroke-width:1;stroke-linecap:round;stroke-linejoin:round;stroke-miterlimit:4;stroke-opacity:1;stroke-dasharray:none;stroke-dashoffset:0;marker:none;visibility:visible;display:inline;overflow:visible;enable-background:new" />
      <rect
         width="70"
         height="1"
         x="32"
         y="15"
         id="rect2964"
         style="fill:url(#linearGradient4759);fill-opacity:1;stroke:none" />
      <path
         d="m 91.498949,69.499997 a 24.523313,23.976156 11.983172 0 1 -48.997898,0 24.523313,23.976156 11.983172 1 1 48.997898,0 z"
         id="path2968"
         style="opacity:0.5;color:#000000;fill:none;stroke:#729fcf;stroke-width:0.99999988;stroke-linecap:round;stroke-linejoin:round;stroke-miterlimit:4;stroke-opacity:1;stroke-dasharray:none;stroke-dashoffset:0;marker:none;visibility:visible;display:inline;overflow:visible;enable-background:new" />
      <path
         d="M 64,70 94.00234,43 98,60.181812 64,70 z"
         id="path2970"
         style="opacity:0.5;color:#000000;fill:url(#linearGradient4754);fill-opacity:1;fill-rule:evenodd;stroke:none;stroke-width:1;marker:none;visibility:visible;display:inline;overflow:visible;enable-background:new" />
      <rect
         width="70"
         height="109"
         x="32"
         y="15"
         id="rect2978"
         style="opacity:0.07999998;fill:url(#radialGradient4748);fill-opacity:1;stroke:none;display:inline;enable-background:new" />
      <rect
         width="70"
         height="109"
         x="32"
         y="15"
         id="rect2980"
         style="opacity:0.25;fill:url(#radialGradient4745);fill-opacity:1;stroke:none;display:inline;enable-background:new" />
      <rect
         width="72"
         height="0.99999994"
         x="31"
         y="16"
         id="rect2982"
         style="opacity:0.6;fill:url(#radialGradient4742);fill-opacity:1;stroke:none" />
      <rect
         width="70"
         height="1"
         x="32"
         y="123.00001"
         id="rect2984"
         style="fill:url(#linearGradient4739);fill-opacity:1;stroke:none" />
    </g>
    <g
       inkscape:groupmode="layer"
       id="layer2"
       inkscape:label="Calque">
      <g
         style="display:inline;enable-background:new"
         id="g3124"
         transform="matrix(0.63385305,0,0,0.63385305,1.9063115,50.069133)">
        <g
           style="display:inline"
           id="layer1-96"
           transform="translate(-3,-4)">
          <g
             style="display:none"
             id="layer6-1" />
          <g
             id="g3748" />
          <g
             id="g3877"
             transform="translate(0,1)" />
          <rect
             style="opacity:0.8;fill:#000000;fill-opacity:1;stroke:none;filter:url(#filter3948)"
             id="rect4268"
             y="114"
             x="51"
             ry="5"
             rx="5"
             height="10"
             width="32" />
          <g
             id="g3740"
             transform="translate(0,1)">
            <path
               style="fill:url(#linearGradient3173);fill-opacity:1;stroke:url(#linearGradient3175);stroke-width:1;stroke-linecap:butt;stroke-linejoin:miter;stroke-miterlimit:4;stroke-opacity:1;stroke-dasharray:none"
               id="rect2965"
               d="m 54.5,13.5 c -1.662,0 -3,1.338 -3,3 l 0,36 -36,0 c -1.662,0 -3,1.338 -3,3 l 0,25 c 0,1.662 1.338,3 3,3 l 36,0 0,36 c 0,1.662 1.338,3 3,3 l 25,0 c 1.662,0 3,-1.338 3,-3 l 0,-36 36,0 c 1.662,0 3,-1.338 3,-3 l 0,-25 c 0,-1.662 -1.338,-3 -3,-3 l -36,0 0,-36 c 0,-1.662 -1.338,-3 -3,-3 l -25,0 z"
               inkscape:connector-curvature="0" />
            <path
               style="font-size:medium;font-style:normal;font-variant:normal;font-weight:normal;font-stretch:normal;text-indent:0;text-align:start;text-decoration:none;line-height:normal;letter-spacing:normal;word-spacing:normal;text-transform:none;direction:ltr;block-progression:tb;writing-mode:lr-tb;text-anchor:start;opacity:0.07999998;color:#000000;fill:url(#radialGradient3177);fill-opacity:1;stroke:none;stroke-width:1;marker:none;visibility:visible;display:inline;overflow:visible;enable-background:accumulate;font-family:Andale Mono;-inkscape-font-specification:Andale Mono"
               id="path3758"
               d="M 54.5,13 C 52.569649,13 51,14.569649 51,16.5 L 51,52 15.5,52 C 13.569649,52 12,53.569649 12,55.5 l 0,25 c 0,1.930351 1.569649,3.5 3.5,3.5 l 35.5,0 0,35.5 c 0,1.93035 1.569649,3.5 3.5,3.5 l 25,0 c 1.930351,0 3.5,-1.56965 3.5,-3.5 l 0,-35.5 35.5,0 c 1.93035,0 3.5,-1.569649 3.5,-3.5 l 0,-25 C 122,53.569649 120.43035,52 118.5,52 L 83,52 83,16.5 C 83,14.569649 81.430351,13 79.5,13 l -25,0 z"
               inkscape:connector-curvature="0" />
            <path
               style="font-size:medium;font-style:normal;font-variant:normal;font-weight:normal;font-stretch:normal;text-indent:0;text-align:start;text-decoration:none;line-height:normal;letter-spacing:normal;word-spacing:normal;text-transform:none;direction:ltr;block-progression:tb;writing-mode:lr-tb;text-anchor:start;opacity:0.25;color:#000000;fill:url(#radialGradient3179);fill-opacity:1;stroke:none;stroke-width:1;marker:none;visibility:visible;display:inline;overflow:visible;enable-background:accumulate;font-family:Andale Mono;-inkscape-font-specification:Andale Mono"
               id="path3768"
               d="M 54.5,13 C 52.569649,13 51,14.569649 51,16.5 L 51,52 15.5,52 C 13.569649,52 12,53.569649 12,55.5 l 0,25 c 0,1.930351 1.569649,3.5 3.5,3.5 l 35.5,0 0,35.5 c 0,1.93035 1.569649,3.5 3.5,3.5 l 25,0 c 1.930351,0 3.5,-1.56965 3.5,-3.5 l 0,-35.5 35.5,0 c 1.93035,0 3.5,-1.569649 3.5,-3.5 l 0,-25 C 122,53.569649 120.43035,52 118.5,52 L 83,52 83,16.5 C 83,14.569649 81.430351,13 79.5,13 l -25,0 z"
               inkscape:connector-curvature="0" />
            <rect
               style="opacity:0.5;fill:url(#radialGradient3181);fill-opacity:1;stroke:none"
               id="rect3730-0"
               y="53"
               x="82"
               height="0.99999982"
               width="38" />
            <rect
               style="opacity:0.5;fill:url(#radialGradient3183);fill-opacity:1;stroke:none"
               id="rect3740-7"
               transform="scale(-1,1)"
               y="53"
               x="-52"
               height="0.99999982"
               width="39" />
            <rect
               style="opacity:0.5;fill:url(#radialGradient3185);fill-opacity:1;stroke:none"
               id="rect3717-9"
               y="14"
               x="52"
               height="1"
               width="30" />
          </g>
          <g
             id="g4271" />
          <g
             id="g3757" />
          <g
             id="g3769" />
        </g>
      </g>
    </g>
    <g
       transform="translate(-1,0)"
       id="g4407" />
  </g>
</svg>
