<?xml version="1.0" encoding="UTF-8" standalone="no"?>
<!-- Created with Inkscape (http://www.inkscape.org/) -->

<svg
   xmlns:dc="http://purl.org/dc/elements/1.1/"
   xmlns:cc="http://creativecommons.org/ns#"
   xmlns:rdf="http://www.w3.org/1999/02/22-rdf-syntax-ns#"
   xmlns:svg="http://www.w3.org/2000/svg"
   xmlns="http://www.w3.org/2000/svg"
   xmlns:xlink="http://www.w3.org/1999/xlink"
   xmlns:sodipodi="http://sodipodi.sourceforge.net/DTD/sodipodi-0.dtd"
   xmlns:inkscape="http://www.inkscape.org/namespaces/inkscape"
   version="1.0"
   width="128"
   height="128"
   id="svg11300"
   style="display:inline;enable-background:new"
   inkscape:version="0.48.3.1 r9886"
   sodipodi:docname="clear.svg">
  <metadata
     id="metadata62">
    <rdf:RDF>
      <cc:Work
         rdf:about="">
        <dc:format>image/svg+xml</dc:format>
        <dc:type
           rdf:resource="http://purl.org/dc/dcmitype/StillImage" />
        <dc:title>Candy Icon Theme</dc:title>
      </cc:Work>
    </rdf:RDF>
  </metadata>
  <sodipodi:namedview
     pagecolor="#ffffff"
     bordercolor="#666666"
     borderopacity="1"
     objecttolerance="10"
     gridtolerance="10"
     guidetolerance="10"
     inkscape:pageopacity="0"
     inkscape:pageshadow="2"
     inkscape:window-width="1301"
     inkscape:window-height="744"
     id="namedview60"
     showgrid="false"
     inkscape:zoom="3.4571107"
     inkscape:cx="33.620963"
     inkscape:cy="59.372443"
     inkscape:window-x="65"
     inkscape:window-y="24"
     inkscape:window-maximized="1"
     inkscape:current-layer="layer2" />
  <title
     id="title2897">Candy Icon Theme</title>
  <defs
     id="defs3">
    <linearGradient
       id="linearGradient3616">
      <stop
         id="stop3618"
         style="stop-color:#000000;stop-opacity:0"
         offset="0" />
      <stop
         id="stop3620"
         style="stop-color:#000000;stop-opacity:1"
         offset="1" />
    </linearGradient>
    <linearGradient
       id="linearGradient2831-3">
      <stop
         id="stop2833-9"
         style="stop-color:#729fcf;stop-opacity:1"
         offset="0" />
      <stop
         id="stop2835-7"
         style="stop-color:#729fcf;stop-opacity:0"
         offset="1" />
    </linearGradient>
    <linearGradient
       id="linearGradient3922">
      <stop
         id="stop3924"
         style="stop-color:#0974dd;stop-opacity:1;"
         offset="0" />
      <stop
         id="stop3926"
         style="stop-color:#6da3dd;stop-opacity:1"
         offset="1" />
    </linearGradient>
    <linearGradient
       id="linearGradient3596">
      <stop
         id="stop3598"
         style="stop-color:#1e1e1e;stop-opacity:1"
         offset="0" />
      <stop
         id="stop3600"
         style="stop-color:#505050;stop-opacity:1"
         offset="1" />
    </linearGradient>
    <linearGradient
       id="linearGradient3652">
      <stop
         id="stop3654"
         style="stop-color:#000000;stop-opacity:1"
         offset="0" />
      <stop
         id="stop3656"
         style="stop-color:#323232;stop-opacity:1"
         offset="1" />
    </linearGradient>
    <linearGradient
       id="linearGradient5594">
      <stop
         id="stop5596"
         style="stop-color:#ffffff;stop-opacity:1"
         offset="0" />
      <stop
         id="stop5598"
         style="stop-color:#ffffff;stop-opacity:0"
         offset="1" />
    </linearGradient>
    <linearGradient
       id="linearGradient3667">
      <stop
         id="stop3669"
         style="stop-color:#2b4561;stop-opacity:1"
         offset="0" />
      <stop
         id="stop3671"
         style="stop-color:#4a85c4;stop-opacity:1"
         offset="1" />
    </linearGradient>
    <linearGradient
       x1="158"
       y1="6"
       x2="158"
       y2="-38"
       id="linearGradient4739"
       xlink:href="#linearGradient3667"
       gradientUnits="userSpaceOnUse"
       gradientTransform="matrix(2.6923077,0,0,1,-358.38462,118)" />
    <radialGradient
       cx="158"
       cy="8.3000002"
       r="14"
       fx="158"
       fy="8.3000002"
       id="radialGradient4742"
       xlink:href="#linearGradient5594"
       gradientUnits="userSpaceOnUse"
       gradientTransform="matrix(2.5714285,0,0,0.35714282,-339.2857,14.035715)" />
    <radialGradient
       cx="158"
       cy="11.484326"
       r="19"
       fx="158"
       fy="11.484326"
       id="radialGradient4745"
       xlink:href="#linearGradient5594"
       gradientUnits="userSpaceOnUse"
       gradientTransform="matrix(3.1024933,6.2386781e-8,-5.0740095e-8,4.5633972,-423.19392,-25.021195)" />
    <radialGradient
       cx="158"
       cy="11.484326"
       r="19"
       fx="158"
       fy="11.484326"
       id="radialGradient4748"
       xlink:href="#linearGradient3616"
       gradientUnits="userSpaceOnUse"
       gradientTransform="matrix(3.1024933,6.2386777e-8,-5.0740095e-8,4.5633971,-423.19391,-25.021195)" />
    <linearGradient
       x1="14.875"
       y1="37.75"
       x2="23.375"
       y2="37.75"
       id="linearGradient4754"
       xlink:href="#linearGradient2831-3"
       gradientUnits="userSpaceOnUse"
       gradientTransform="matrix(4.703535,0,1.8141274,4.9090907,-79.43726,-128.81816)" />
    <linearGradient
       x1="158"
       y1="49"
       x2="158"
       y2="5"
       id="linearGradient4759"
       xlink:href="#linearGradient3667"
       gradientUnits="userSpaceOnUse"
       gradientTransform="matrix(2.6923077,0,0,1,-358.38462,9.9999943)" />
    <linearGradient
       x1="158"
       y1="49"
       x2="158"
       y2="5"
       id="linearGradient4766"
       xlink:href="#linearGradient3922"
       gradientUnits="userSpaceOnUse"
       gradientTransform="matrix(2.5000001,0,0,2.5681818,-328.00001,0.15909)" />
    <linearGradient
       x1="158"
       y1="49"
       x2="158"
       y2="5"
       id="linearGradient4769"
       xlink:href="#linearGradient3596"
       gradientUnits="userSpaceOnUse"
       gradientTransform="matrix(2.7714289,0,0,2.6046512,-373.88573,-2.8255809)" />
    <linearGradient
       x1="155"
       y1="49"
       x2="155"
       y2="5"
       id="linearGradient4771"
       xlink:href="#linearGradient3652"
       gradientUnits="userSpaceOnUse"
       gradientTransform="matrix(2.7714289,0,0,2.6046512,-373.88573,-2.8255809)" />
    <filter
       x="-0.085959181"
       y="-0.84240001"
       width="1.1719184"
       height="2.6847999"
       color-interpolation-filters="sRGB"
       id="filter4905">
      <feGaussianBlur
         stdDeviation="3.51"
         id="feGaussianBlur4907" />
    </filter>
    <radialGradient
       cx="24.377031"
       cy="45.941494"
       r="23.076923"
       fx="24.377031"
       fy="45.941494"
       id="radialGradient2666"
       xlink:href="#linearGradient3476"
       gradientUnits="userSpaceOnUse"
       gradientTransform="matrix(1,0,0,0.1455399,0,39.255173)" />
    <linearGradient
       id="linearGradient3476">
      <stop
         id="stop3478"
         style="stop-color:#2e3436;stop-opacity:1"
         offset="0" />
      <stop
         id="stop3480"
         style="stop-color:#2e3436;stop-opacity:0"
         offset="1" />
    </linearGradient>
    <linearGradient
       x1="43.78125"
       y1="4.21875"
       x2="43.78125"
       y2="43.78125"
       id="linearGradient2904"
       xlink:href="#linearGradient3433"
       gradientUnits="userSpaceOnUse" />
    <linearGradient
       id="linearGradient3433">
      <stop
         id="stop3435"
         style="stop-color:#ffffff;stop-opacity:0.80000001"
         offset="0" />
      <stop
         id="stop3437"
         style="stop-color:#ffffff;stop-opacity:0"
         offset="1" />
    </linearGradient>
    <linearGradient
       x1="4.09375"
       y1="-58.012062"
       x2="15.29774"
       y2="33.906113"
       id="linearGradient2906"
       xlink:href="#linearGradient3456"
       gradientUnits="userSpaceOnUse"
       gradientTransform="translate(0.7063923,-1.4999995)" />
    <linearGradient
       id="linearGradient3456">
      <stop
         id="stop3458"
         style="stop-color:#eeeeec;stop-opacity:1"
         offset="0" />
      <stop
         id="stop3460"
         style="stop-color:#eeeeec;stop-opacity:0"
         offset="1" />
    </linearGradient>
    <radialGradient
       id="radialGradient6025"
       fx="28.603001"
       gradientUnits="userSpaceOnUse"
       cy="69"
       cx="38"
       gradientTransform="matrix(1,0,0,0.45,0,37.95)"
       r="20">
      <stop
         id="stop6021"
         offset="0" />
      <stop
         id="stop6023"
         style="stop-opacity:0"
         offset="1" />
    </radialGradient>
    <linearGradient
       id="linearGradient5964"
       y2="8"
       gradientUnits="userSpaceOnUse"
       x2="26"
       gradientTransform="translate(-2,0)"
       y1="16"
       x1="28">
      <stop
         id="stop5960"
         style="stop-color:#c17d11"
         offset="0" />
      <stop
         id="stop5962"
         style="stop-color:#e9b96e"
         offset="1" />
    </linearGradient>
    <linearGradient
       id="linearGradient6002"
       y2="18"
       gradientUnits="userSpaceOnUse"
       x2="34"
       gradientTransform="translate(-2,0)"
       y1="9.2407999"
       x1="30.325001">
      <stop
         id="stop5998"
         style="stop-color:#8f5902"
         offset="0" />
      <stop
         id="stop6000"
         style="stop-color:#73521e"
         offset="1" />
    </linearGradient>
    <linearGradient
       id="linearGradient5994"
       y2="16.686001"
       gradientUnits="userSpaceOnUse"
       x2="33.446999"
       y1="8"
       x1="28">
      <stop
         id="stop5986"
         style="stop-color:#fff"
         offset="0" />
      <stop
         id="stop5988"
         style="stop-color:#fff;stop-opacity:.13439"
         offset="1" />
    </linearGradient>
    <linearGradient
       id="linearGradient5972"
       y2="30.743"
       gradientUnits="userSpaceOnUse"
       x2="30.208"
       gradientTransform="translate(-2,0)"
       y1="25.061001"
       x1="20.934">
      <stop
         id="stop5968"
         style="stop-color:#fdef72"
         offset="0" />
      <stop
         id="stop5970"
         style="stop-color:#e2cb0b"
         offset="1" />
    </linearGradient>
    <linearGradient
       id="linearGradient5993"
       y2="37.846001"
       gradientUnits="userSpaceOnUse"
       x2="29.493999"
       gradientTransform="translate(-2,0)"
       y1="27.447001"
       x1="17.032">
      <stop
         id="stop5989"
         style="stop-color:#d7c20f"
         offset="0" />
      <stop
         id="stop5991"
         style="stop-color:#b6970d"
         offset="1" />
    </linearGradient>
    <linearGradient
       id="linearGradient5973"
       y2="37.028999"
       gradientUnits="userSpaceOnUse"
       x2="18.986"
       gradientTransform="translate(-2,0)"
       y1="41.956001"
       x1="22.32">
      <stop
         id="stop5983"
         style="stop-color:#fff"
         offset="0" />
      <stop
         id="stop5985"
         style="stop-color:#fff;stop-opacity:.69412"
         offset="1" />
    </linearGradient>
    <linearGradient
       id="linearGradient6005"
       y2="34.728001"
       gradientUnits="userSpaceOnUse"
       x2="23.489"
       gradientTransform="translate(-2,0)"
       y1="36.217999"
       x1="27.355">
      <stop
         id="stop6001"
         style="stop-color:#c4a000"
         offset="0" />
      <stop
         id="stop6003"
         style="stop-color:#c4a000;stop-opacity:0"
         offset="1" />
    </linearGradient>
    <linearGradient
       id="linearGradient5980-761"
       y2="20.618999"
       gradientUnits="userSpaceOnUse"
       x2="21.591"
       gradientTransform="matrix(0.97682,0,0,1,-1.3747,0)"
       y1="23.146"
       x1="27.652">
      <stop
         id="stop2473"
         style="stop-color:#919191"
         offset="0" />
      <stop
         id="stop2475"
         style="stop-color:#cecece"
         offset="1" />
    </linearGradient>
    <linearGradient
       y2="20.618999"
       x2="21.591"
       y1="23.146"
       x1="27.652"
       gradientTransform="matrix(0.97682,0,0,1,-1.3747,0)"
       gradientUnits="userSpaceOnUse"
       id="linearGradient3180"
       xlink:href="#linearGradient5980-761"
       inkscape:collect="always" />
  </defs>
  <g
     transform="translate(-3,-4)"
     id="layer1"
     style="display:inline">
    <g
       id="layer6"
       style="display:none" />
    <rect
       width="98"
       height="10"
       rx="5"
       ry="5"
       x="18"
       y="115"
       id="rect4557"
       style="opacity:0.8;fill:#000000;fill-opacity:1;stroke:none;filter:url(#filter4905)" />
    <g
       id="g3996" />
    <g
       id="g4085" />
    <g
       transform="translate(-1,0)"
       id="g4238" />
    <g
       id="g4600" />
    <g
       id="g4909">
      <path
         d="m 20.5,15.5 c -1.108,0 -2,0.892 -2,2 l 0,104 c 0,1.108 0.892,2 2,2 l 93,0 c 1.108,0 2,-0.892 2,-2 l 0,-104 c 0,-1.108 -0.892,-2 -2,-2 l -1,0 0,1 c 0,0.554 -0.446,1 -1,1 l -6,0 c -0.554,0 -1,-0.446 -1,-1 l 0,-1 -75,0 0,1 c 0,0.554 -0.446,1 -1,1 l -6,0 c -0.554,0 -1,-0.446 -1,-1 l 0,-1 -1,0 z m 2,7 6,0 c 0.554,0 1,0.446 1,1 l 0,3 c 0,0.554 -0.446,1 -1,1 l -6,0 c -0.554,0 -1,-0.446 -1,-1 l 0,-3 c 0,-0.554 0.446,-1 1,-1 z m 83,0 6,0 c 0.554,0 1,0.446 1,1 l 0,3 c 0,0.554 -0.446,1 -1,1 l -6,0 c -0.554,0 -1,-0.446 -1,-1 l 0,-3 c 0,-0.554 0.446,-1 1,-1 z m -83,10 6,0 c 0.554,0 1,0.446 1,1 l 0,3 c 0,0.554 -0.446,1 -1,1 l -6,0 c -0.554,0 -1,-0.446 -1,-1 l 0,-3 c 0,-0.554 0.446,-1 1,-1 z m 83,0 6,0 c 0.554,0 1,0.446 1,1 l 0,3 c 0,0.554 -0.446,1 -1,1 l -6,0 c -0.554,0 -1,-0.446 -1,-1 l 0,-3 c 0,-0.554 0.446,-1 1,-1 z m -83,10 6,0 c 0.554,0 1,0.446 1,1 l 0,3 c 0,0.554 -0.446,1 -1,1 l -6,0 c -0.554,0 -1,-0.446 -1,-1 l 0,-3 c 0,-0.554 0.446,-1 1,-1 z m 83,0 6,0 c 0.554,0 1,0.446 1,1 l 0,3 c 0,0.554 -0.446,1 -1,1 l -6,0 c -0.554,0 -1,-0.446 -1,-1 l 0,-3 c 0,-0.554 0.446,-1 1,-1 z m -83,10 6,0 c 0.554,0 1,0.446 1,1 l 0,3 c 0,0.554 -0.446,1 -1,1 l -6,0 c -0.554,0 -1,-0.446 -1,-1 l 0,-3 c 0,-0.554 0.446,-1 1,-1 z m 83,0 6,0 c 0.554,0 1,0.446 1,1 l 0,3 c 0,0.554 -0.446,1 -1,1 l -6,0 c -0.554,0 -1,-0.446 -1,-1 l 0,-3 c 0,-0.554 0.446,-1 1,-1 z m -83,10 6,0 c 0.554,0 1,0.446 1,1 l 0,3 c 0,0.554 -0.446,1 -1,1 l -6,0 c -0.554,0 -1,-0.446 -1,-1 l 0,-3 c 0,-0.554 0.446,-1 1,-1 z m 83,0 6,0 c 0.554,0 1,0.446 1,1 l 0,3 c 0,0.554 -0.446,1 -1,1 l -6,0 c -0.554,0 -1,-0.446 -1,-1 l 0,-3 c 0,-0.554 0.446,-1 1,-1 z m -83,10 6,0 c 0.554,0 1,0.446 1,1 l 0,3 c 0,0.554 -0.446,1 -1,1 l -6,0 c -0.554,0 -1,-0.446 -1,-1 l 0,-3 c 0,-0.554 0.446,-1 1,-1 z m 83,0 6,0 c 0.554,0 1,0.446 1,1 l 0,3 c 0,0.554 -0.446,1 -1,1 l -6,0 c -0.554,0 -1,-0.446 -1,-1 l 0,-3 c 0,-0.554 0.446,-1 1,-1 z m -83,10 6,0 c 0.554,0 1,0.446 1,1 l 0,3 c 0,0.554 -0.446,1 -1,1 l -6,0 c -0.554,0 -1,-0.446 -1,-1 l 0,-3 c 0,-0.554 0.446,-1 1,-1 z m 83,0 6,0 c 0.554,0 1,0.446 1,1 l 0,3 c 0,0.554 -0.446,1 -1,1 l -6,0 c -0.554,0 -1,-0.446 -1,-1 l 0,-3 c 0,-0.554 0.446,-1 1,-1 z m -83,10 6,0 c 0.554,0 1,0.446 1,1 l 0,3 c 0,0.554 -0.446,1 -1,1 l -6,0 c -0.554,0 -1,-0.446 -1,-1 l 0,-3 c 0,-0.554 0.446,-1 1,-1 z m 83,0 6,0 c 0.554,0 1,0.446 1,1 l 0,3 c 0,0.554 -0.446,1 -1,1 l -6,0 c -0.554,0 -1,-0.446 -1,-1 l 0,-3 c 0,-0.554 0.446,-1 1,-1 z m -83,10 6,0 c 0.554,0 1,0.446 1,1 l 0,3 c 0,0.554 -0.446,1 -1,1 l -6,0 c -0.554,0 -1,-0.446 -1,-1 l 0,-3 c 0,-0.554 0.446,-1 1,-1 z m 83,0 6,0 c 0.554,0 1,0.446 1,1 l 0,3 c 0,0.554 -0.446,1 -1,1 l -6,0 c -0.554,0 -1,-0.446 -1,-1 l 0,-3 c 0,-0.554 0.446,-1 1,-1 z m -83,10 6,0 c 0.554,0 1,0.446 1,1 l 0,3 c 0,0.554 -0.446,1 -1,1 l -6,0 c -0.554,0 -1,-0.446 -1,-1 l 0,-3 c 0,-0.554 0.446,-1 1,-1 z m 83,0 6,0 c 0.554,0 1,0.446 1,1 l 0,3 c 0,0.554 -0.446,1 -1,1 l -6,0 c -0.554,0 -1,-0.446 -1,-1 l 0,-3 c 0,-0.554 0.446,-1 1,-1 z"
         id="rect3773"
         style="fill:url(#linearGradient4769);fill-opacity:1;stroke:url(#linearGradient4771);stroke-width:1;stroke-linejoin:round;stroke-miterlimit:4;stroke-opacity:1;stroke-dasharray:none" />
      <path
         d="m 32,15 0,22 70,0 0,-22 -70,0 z m 0,23 0,63 70,0 0,-63 -70,0 z m 0,64 0,22 70,0 0,-22 -70,0 z"
         id="path2958"
         style="fill:url(#linearGradient4766);fill-opacity:1;stroke:none" />
      <path
         d="m 90.9375,123.5 c -4.189171,-8.30363 -12.959544,-14 -23.1875,-14 -10.227223,0 -19.148464,5.69734 -23.5,14"
         id="path3935"
         style="opacity:0.5;color:#000000;fill:none;stroke:#729fcf;stroke-width:0.99999994;stroke-linecap:round;stroke-linejoin:round;stroke-miterlimit:4;stroke-opacity:1;stroke-dasharray:none;stroke-dashoffset:0;marker:none;visibility:visible;display:inline;overflow:visible;enable-background:new" />
      <path
         d="m 43.21875,15.5 c 4.263234,8.301535 13.013319,14 23.03125,14 10.018569,0 18.614517,-5.697608 22.71875,-14"
         id="path2962"
         style="opacity:0.5;color:#000000;fill:none;stroke:#729fcf;stroke-width:1;stroke-linecap:round;stroke-linejoin:round;stroke-miterlimit:4;stroke-opacity:1;stroke-dasharray:none;stroke-dashoffset:0;marker:none;visibility:visible;display:inline;overflow:visible;enable-background:new" />
      <rect
         width="70"
         height="1"
         x="32"
         y="15"
         id="rect2964"
         style="fill:url(#linearGradient4759);fill-opacity:1;stroke:none" />
      <path
         d="m 91.498949,69.499997 a 24.523313,23.976156 11.983172 0 1 -48.997898,0 24.523313,23.976156 11.983172 1 1 48.997898,0 z"
         id="path2968"
         style="opacity:0.5;color:#000000;fill:none;stroke:#729fcf;stroke-width:0.99999988;stroke-linecap:round;stroke-linejoin:round;stroke-miterlimit:4;stroke-opacity:1;stroke-dasharray:none;stroke-dashoffset:0;marker:none;visibility:visible;display:inline;overflow:visible;enable-background:new" />
      <path
         d="M 64,70 94.00234,43 98,60.181812 64,70 z"
         id="path2970"
         style="opacity:0.5;color:#000000;fill:url(#linearGradient4754);fill-opacity:1;fill-rule:evenodd;stroke:none;stroke-width:1;marker:none;visibility:visible;display:inline;overflow:visible;enable-background:new" />
      <rect
         width="70"
         height="109"
         x="32"
         y="15"
         id="rect2978"
         style="opacity:0.07999998;fill:url(#radialGradient4748);fill-opacity:1;stroke:none;display:inline;enable-background:new" />
      <rect
         width="70"
         height="109"
         x="32"
         y="15"
         id="rect2980"
         style="opacity:0.25;fill:url(#radialGradient4745);fill-opacity:1;stroke:none;display:inline;enable-background:new" />
      <rect
         width="72"
         height="0.99999994"
         x="31"
         y="16"
         id="rect2982"
         style="opacity:0.6;fill:url(#radialGradient4742);fill-opacity:1;stroke:none" />
      <rect
         width="70"
         height="1"
         x="32"
         y="123.00001"
         id="rect2984"
         style="fill:url(#linearGradient4739);fill-opacity:1;stroke:none" />
    </g>
    <g
       inkscape:groupmode="layer"
       id="layer2"
       inkscape:label="Calque">
      <g
         id="layer1-5"
         transform="matrix(1.7992883,0,0,1.7992883,-4.504491,50.500482)">
        <path
           id="path6017"
           style="opacity:0.25;fill:url(#radialGradient6025)"
           d="m 58,69 a 20,9 0 1 1 -40,0 20,9 0 1 1 40,0 z"
           transform="matrix(1,0,0,0.66667,-14,-5)"
           inkscape:connector-curvature="0" />
        <path
           id="path5371"
           style="fill:url(#linearGradient5964);fill-rule:evenodd;stroke:url(#linearGradient6002);stroke-width:1px"
           d="m 34.594,2.4688 c -8.2032,0.10565 -9.3968,16.248 -11.75,19.156 l 4,1.4375 C 29.476,18.6903 42.6,4.1543 35.406,2.5003 35.127,2.4693 34.858,2.4656 34.594,2.4691 z m -1.0312,2.0625 c 0.19356,-0.018739 0.36799,0.00572 0.53125,0.09375 0.65306,0.35212 0.72366,1.4949 0.15625,2.5312 -0.5674,1.0364 -1.5657,1.6021 -2.2188,1.25 -0.654,-0.3522 -0.724,-1.4949 -0.157,-2.5313 0.426,-0.7773 1.107,-1.2875 1.687,-1.3438 z"
           inkscape:connector-curvature="0" />
        <path
           id="path5992"
           style="opacity:0.26667002;fill:none;stroke:url(#linearGradient5994);stroke-width:1px"
           d="m 36.594,3.4688 c -1.7216,0.022173 -3.0079,0.85587 -4.1875,2.2812 -1.1796,1.4254 -2.1483,3.4416 -2.9375,5.5938 -0.78917,2.1521 -1.424,4.4343 -2,6.375 -0.39989,1.3475 -0.76986,2.4064 -1.2188,3.3438 l 2.1875,0.78125 c 1.6186,-2.4956 5.0388,-6.5912 7.5312,-10.625 1.3258,-2.1458 2.2837,-4.178 2.5,-5.5625 0.108,-0.692 0.045,-1.1727 -0.125,-1.4685 -0.165,-0.2865 -0.464,-0.5246 -1.125,-0.6875 -0.2,-0.0188 -0.401,-0.0341 -0.625,-0.0312 z"
           transform="translate(-2,0)"
           inkscape:connector-curvature="0" />
        <path
           id="path5367"
           style="fill:url(#linearGradient5972);fill-rule:evenodd;stroke:url(#linearGradient5993);stroke-miterlimit:20"
           d="m 20.5,16.5 c 0.70951,2.003 -0.54139,3.7378 -1,5 -5.192,1.546 -8.787,9.704 -14.133,13.954 0.6682,0.697 1.4526,1.444 2.133,2.046 l 4.0625,-3.5312 -3.0676,4.5246 c 2.2091,1.791 4.5051,3.007 6.0051,3.507 l 2.75,-3.656 -1.75,4.156 c 1.452,0.58888 4.9853,1.482 7,1.5 l 2.0039,-3.4025 -0.51317,3.465 c 0.82956,0.15836 2.4382,0.37422 3.5093,0.40625 3.3622,-5.5 4,-14.469 2,-18.469 -0.5,-2 1.5,-4.5 3,-5.5 -2.5,-2 -8.2056,-4.3037 -12,-4 z"
           inkscape:connector-curvature="0" />
        <path
           id="path5975"
           style="opacity:0.26667002;fill:#c4a000;fill-rule:evenodd"
           d="M 9,38.5 C 13.816,33.489 13.465,31.296 19.116,26.972 16.134,31.801 15.65,34.312 12,40.5 l -3,-2 z"
           inkscape:connector-curvature="0" />
        <path
           id="path5979"
           style="opacity:0.41568998;fill:#c4a000;fill-rule:evenodd"
           d="m 16.15,42.202 4.346,-9.8401 c 1.6645,-2.9837 2.8597,-5.9701 4.529,-8.3474 -1.602,5.418 -4.8907,12.122 -7.5312,18.625 L 16.15,42.202 z"
           inkscape:connector-curvature="0" />
        <path
           id="path6014"
           style="opacity:0.47843;fill:none;stroke:url(#linearGradient5973);stroke-width:1px"
           d="m 21.625,17.5 c 0.09674,1.9151 -0.92294,3.5296 -1.2188,4.3438 -0.1041,0.28471 -0.33533,0.50437 -0.625,0.59375 -5.4534,2.2346 -7.6298,8.574 -12.995,13.086 0.20164,0.19985 0.49203,0.4173 0.69453,0.60823 l 9.019,-7.632 -6.5766,9.81 c 1.27,1.0276 2.7222,1.8845 4.2267,2.4892 l 6.994,-9.299 -4.274,10.412 c 1.595,0.525 3.098,0.827 4.945,1.088 l 4.6187,-7.6875 -1.3707,7.9068 1.875,0.226 c 1.4332,-2.5355 2.1324,-5.6665 2.5312,-8.7891 0.42394,-3.3188 -0.005,-6.5412 -0.84375,-8.2188 -0.02716,-0.06021 -0.0481,-0.12304 -0.0625,-0.1875 -0.34686,-1.3874 0.16914,-2.7456 0.875,-3.875 0.42689,-0.68303 0.93037,-1.2908 1.465,-1.8018 -1.172,-0.781 -2.587,-1.459 -4.372,-2.103 -1.762,-0.637 -3.498,-0.95 -4.906,-0.969 z"
           inkscape:connector-curvature="0" />
        <path
           id="path5977"
           style="opacity:0.24706002;fill:url(#linearGradient6005);fill-rule:evenodd"
           d="m 18.969,43 c 2.1776,-5.7519 6.3959,-10.069 8.0169,-15.935 0.05154,3.6621 0.24972,10.204 -1.8919,16.717 -0.31977,0.0018 -0.17393,-0.11081 -0.46988,-0.11855 l 0.80079,-5.7245 -3.2815,5.5544 c -2.191,-0.157 -1.294,0.032 -3.174,-0.493 z"
           inkscape:connector-curvature="0" />
        <path
           id="path5995"
           style="opacity:0.48235001;fill:#c4a000;fill-rule:evenodd"
           d="m 21.003,22.61 c -1.252,0.61638 -2.0622,1.5273 -2.9831,2.3644 1.2265,-0.70864 2.379,-1.449 3.9996,-1.9887 L 21.003,22.61005 z"
           inkscape:connector-curvature="0" />
        <path
           id="path5997"
           style="opacity:0.48235001;fill:#c4a000;fill-rule:evenodd"
           d="m 23.009,23.061 -1.0165,1.9887 2.9807,-1.5882 -1.9642,-0.40049 z"
           inkscape:connector-curvature="0" />
        <path
           id="path6007"
           style="opacity:0.48235001;fill:#c4a000;fill-rule:evenodd"
           d="m 22.94,17.961 -0.89519,1.707 1.5657,0.50208 -0.67053,-2.2091 z"
           inkscape:connector-curvature="0" />
        <path
           id="path6009"
           style="opacity:0.48235001;fill:#c4a000;fill-rule:evenodd"
           d="m 29.923,19.885 -2.4602,1.8354 1.5657,0.50208 0.89452,-2.3375 z"
           inkscape:connector-curvature="0" />
        <path
           id="path6011"
           style="opacity:0.48235001;fill:#c4a000;fill-rule:evenodd"
           d="m 26.013,17.939 -1.5139,2.5246 1.5657,0.50208 -0.05182,-3.0267 z"
           inkscape:connector-curvature="0" />
        <path
           id="path6013"
           style="opacity:0.2;fill-rule:evenodd"
           d="m 18.968,22.025 c -0.56678,-2.9655 9.3328,2.1529 11.037,2.9944 -0.0065,1.0791 0,2 -0.97682,2 -2.5675,-1.393 -6.5353,-3.6051 -10.06,-4.9944 z"
           inkscape:connector-curvature="0" />
        <path
           id="path5373"
           style="fill:url(#linearGradient3180);fill-rule:evenodd;stroke:#464646;stroke-width:1px;stroke-linejoin:round"
           d="m 18.65,21.5 c -0.48841,-1 0,-2 0.97682,-2 3.9914,0.97542 7.3249,2.2062 10.745,4 0.48841,1 0,2 -0.97682,2 -3.5339,-1.8644 -6.8667,-3.0748 -10.745,-4 z"
           inkscape:connector-curvature="0" />
      </g>
    </g>
    <g
       transform="translate(-1,0)"
       id="g4407" />
  </g>
</svg>
