<?xml version="1.0" encoding="UTF-8" standalone="no"?>
<!-- Created with Inkscape (http://www.inkscape.org/) -->

<svg
   xmlns:dc="http://purl.org/dc/elements/1.1/"
   xmlns:cc="http://creativecommons.org/ns#"
   xmlns:rdf="http://www.w3.org/1999/02/22-rdf-syntax-ns#"
   xmlns:svg="http://www.w3.org/2000/svg"
   xmlns="http://www.w3.org/2000/svg"
   xmlns:xlink="http://www.w3.org/1999/xlink"
   xmlns:sodipodi="http://sodipodi.sourceforge.net/DTD/sodipodi-0.dtd"
   xmlns:inkscape="http://www.inkscape.org/namespaces/inkscape"
   version="1.0"
   width="128"
   height="128"
   id="svg11300"
   style="display:inline;enable-background:new"
   inkscape:version="0.48.3.1 r9886"
   sodipodi:docname="remove.svg">
  <metadata
     id="metadata62">
    <rdf:RDF>
      <cc:Work
         rdf:about="">
        <dc:format>image/svg+xml</dc:format>
        <dc:type
           rdf:resource="http://purl.org/dc/dcmitype/StillImage" />
        <dc:title>Candy Icon Theme</dc:title>
      </cc:Work>
    </rdf:RDF>
  </metadata>
  <sodipodi:namedview
     pagecolor="#ffffff"
     bordercolor="#666666"
     borderopacity="1"
     objecttolerance="10"
     gridtolerance="10"
     guidetolerance="10"
     inkscape:pageopacity="0"
     inkscape:pageshadow="2"
     inkscape:window-width="1600"
     inkscape:window-height="845"
     id="namedview60"
     showgrid="false"
     inkscape:zoom="5.0859375"
     inkscape:cx="64"
     inkscape:cy="64"
     inkscape:window-x="-2"
     inkscape:window-y="-3"
     inkscape:window-maximized="1"
     inkscape:current-layer="layer2" />
  <title
     id="title2897">Candy Icon Theme</title>
  <defs
     id="defs3">
    <linearGradient
       id="linearGradient3616">
      <stop
         id="stop3618"
         style="stop-color:#000000;stop-opacity:0"
         offset="0" />
      <stop
         id="stop3620"
         style="stop-color:#000000;stop-opacity:1"
         offset="1" />
    </linearGradient>
    <linearGradient
       id="linearGradient2831-3">
      <stop
         id="stop2833-9"
         style="stop-color:#729fcf;stop-opacity:1"
         offset="0" />
      <stop
         id="stop2835-7"
         style="stop-color:#729fcf;stop-opacity:0"
         offset="1" />
    </linearGradient>
    <linearGradient
       id="linearGradient3922">
      <stop
         id="stop3924"
         style="stop-color:#0974dd;stop-opacity:1;"
         offset="0" />
      <stop
         id="stop3926"
         style="stop-color:#6da3dd;stop-opacity:1"
         offset="1" />
    </linearGradient>
    <linearGradient
       id="linearGradient3596">
      <stop
         id="stop3598"
         style="stop-color:#1e1e1e;stop-opacity:1"
         offset="0" />
      <stop
         id="stop3600"
         style="stop-color:#505050;stop-opacity:1"
         offset="1" />
    </linearGradient>
    <linearGradient
       id="linearGradient3652">
      <stop
         id="stop3654"
         style="stop-color:#000000;stop-opacity:1"
         offset="0" />
      <stop
         id="stop3656"
         style="stop-color:#323232;stop-opacity:1"
         offset="1" />
    </linearGradient>
    <linearGradient
       id="linearGradient5594">
      <stop
         id="stop5596"
         style="stop-color:#ffffff;stop-opacity:1"
         offset="0" />
      <stop
         id="stop5598"
         style="stop-color:#ffffff;stop-opacity:0"
         offset="1" />
    </linearGradient>
    <linearGradient
       id="linearGradient3667">
      <stop
         id="stop3669"
         style="stop-color:#2b4561;stop-opacity:1"
         offset="0" />
      <stop
         id="stop3671"
         style="stop-color:#4a85c4;stop-opacity:1"
         offset="1" />
    </linearGradient>
    <linearGradient
       x1="158"
       y1="6"
       x2="158"
       y2="-38"
       id="linearGradient4739"
       xlink:href="#linearGradient3667"
       gradientUnits="userSpaceOnUse"
       gradientTransform="matrix(2.6923077,0,0,1,-358.38462,118)" />
    <radialGradient
       cx="158"
       cy="8.3000002"
       r="14"
       fx="158"
       fy="8.3000002"
       id="radialGradient4742"
       xlink:href="#linearGradient5594"
       gradientUnits="userSpaceOnUse"
       gradientTransform="matrix(2.5714285,0,0,0.35714282,-339.2857,14.035715)" />
    <radialGradient
       cx="158"
       cy="11.484326"
       r="19"
       fx="158"
       fy="11.484326"
       id="radialGradient4745"
       xlink:href="#linearGradient5594"
       gradientUnits="userSpaceOnUse"
       gradientTransform="matrix(3.1024933,6.2386781e-8,-5.0740095e-8,4.5633972,-423.19392,-25.021195)" />
    <radialGradient
       cx="158"
       cy="11.484326"
       r="19"
       fx="158"
       fy="11.484326"
       id="radialGradient4748"
       xlink:href="#linearGradient3616"
       gradientUnits="userSpaceOnUse"
       gradientTransform="matrix(3.1024933,6.2386777e-8,-5.0740095e-8,4.5633971,-423.19391,-25.021195)" />
    <linearGradient
       x1="14.875"
       y1="37.75"
       x2="23.375"
       y2="37.75"
       id="linearGradient4754"
       xlink:href="#linearGradient2831-3"
       gradientUnits="userSpaceOnUse"
       gradientTransform="matrix(4.703535,0,1.8141274,4.9090907,-79.43726,-128.81816)" />
    <linearGradient
       x1="158"
       y1="49"
       x2="158"
       y2="5"
       id="linearGradient4759"
       xlink:href="#linearGradient3667"
       gradientUnits="userSpaceOnUse"
       gradientTransform="matrix(2.6923077,0,0,1,-358.38462,9.9999943)" />
    <linearGradient
       x1="158"
       y1="49"
       x2="158"
       y2="5"
       id="linearGradient4766"
       xlink:href="#linearGradient3922"
       gradientUnits="userSpaceOnUse"
       gradientTransform="matrix(2.5000001,0,0,2.5681818,-328.00001,0.15909)" />
    <linearGradient
       x1="158"
       y1="49"
       x2="158"
       y2="5"
       id="linearGradient4769"
       xlink:href="#linearGradient3596"
       gradientUnits="userSpaceOnUse"
       gradientTransform="matrix(2.7714289,0,0,2.6046512,-373.88573,-2.8255809)" />
    <linearGradient
       x1="155"
       y1="49"
       x2="155"
       y2="5"
       id="linearGradient4771"
       xlink:href="#linearGradient3652"
       gradientUnits="userSpaceOnUse"
       gradientTransform="matrix(2.7714289,0,0,2.6046512,-373.88573,-2.8255809)" />
    <filter
       x="-0.085959181"
       y="-0.84240001"
       width="1.1719184"
       height="2.6847999"
       color-interpolation-filters="sRGB"
       id="filter4905">
      <feGaussianBlur
         stdDeviation="3.51"
         id="feGaussianBlur4907" />
    </filter>
    <radialGradient
       cx="24.377031"
       cy="45.941494"
       r="23.076923"
       fx="24.377031"
       fy="45.941494"
       id="radialGradient2666"
       xlink:href="#linearGradient3476"
       gradientUnits="userSpaceOnUse"
       gradientTransform="matrix(1,0,0,0.1455399,0,39.255173)" />
    <linearGradient
       id="linearGradient3476">
      <stop
         id="stop3478"
         style="stop-color:#2e3436;stop-opacity:1"
         offset="0" />
      <stop
         id="stop3480"
         style="stop-color:#2e3436;stop-opacity:0"
         offset="1" />
    </linearGradient>
    <linearGradient
       x1="43.78125"
       y1="4.21875"
       x2="43.78125"
       y2="43.78125"
       id="linearGradient2904"
       xlink:href="#linearGradient3433"
       gradientUnits="userSpaceOnUse" />
    <linearGradient
       id="linearGradient3433">
      <stop
         id="stop3435"
         style="stop-color:#ffffff;stop-opacity:0.80000001"
         offset="0" />
      <stop
         id="stop3437"
         style="stop-color:#ffffff;stop-opacity:0"
         offset="1" />
    </linearGradient>
    <linearGradient
       x1="4.09375"
       y1="-58.012062"
       x2="15.29774"
       y2="33.906113"
       id="linearGradient2906"
       xlink:href="#linearGradient3456"
       gradientUnits="userSpaceOnUse"
       gradientTransform="translate(0.7063923,-1.4999995)" />
    <linearGradient
       id="linearGradient3456">
      <stop
         id="stop3458"
         style="stop-color:#eeeeec;stop-opacity:1"
         offset="0" />
      <stop
         id="stop3460"
         style="stop-color:#eeeeec;stop-opacity:0"
         offset="1" />
    </linearGradient>
    <linearGradient
       gradientUnits="userSpaceOnUse"
       xlink:href="#linearGradient3612"
       id="linearGradient2931"
       y2="84"
       x2="57"
       y1="52"
       x1="57" />
    <linearGradient
       gradientUnits="userSpaceOnUse"
       xlink:href="#linearGradient3596-2"
       id="linearGradient2929"
       y2="84"
       x2="60"
       y1="52"
       x1="60" />
    <radialGradient
       gradientTransform="matrix(1,0,0,0.47272728,0,43.354546)"
       gradientUnits="userSpaceOnUse"
       xlink:href="#linearGradient3626"
       id="radialGradient2926"
       fy="-7.0961547"
       fx="67"
       r="55"
       cy="-7.0961547"
       cx="67" />
    <radialGradient
       gradientTransform="matrix(1,0,0,0.47272728,0,43.354546)"
       gradientUnits="userSpaceOnUse"
       xlink:href="#linearGradient3638"
       id="radialGradient2923"
       fy="-2.8653858"
       fx="67"
       r="55"
       cy="-2.8653858"
       cx="67" />
    <radialGradient
       gradientTransform="matrix(2.7894737,0,0,0.15789474,-373.73685,47.289474)"
       gradientUnits="userSpaceOnUse"
       xlink:href="#linearGradient3638"
       id="radialGradient2920"
       fy="42.499996"
       fx="158"
       r="19"
       cy="42.499996"
       cx="158" />
    <filter
       id="filter4193"
       color-interpolation-filters="sRGB"
       height="2.7279999"
       width="1.1570909"
       y="-0.86400002"
       x="-0.078545459">
      <feGaussianBlur
         stdDeviation="3.6"
         id="feGaussianBlur4195" />
    </filter>
    <linearGradient
       id="linearGradient3638">
      <stop
         offset="0"
         style="stop-color:#ffffff;stop-opacity:1"
         id="stop3640" />
      <stop
         offset="1"
         style="stop-color:#ffffff;stop-opacity:0"
         id="stop3642" />
    </linearGradient>
    <linearGradient
       id="linearGradient3626">
      <stop
         offset="0"
         style="stop-color:#000000;stop-opacity:0"
         id="stop3628" />
      <stop
         offset="1"
         style="stop-color:#000000;stop-opacity:1"
         id="stop3630" />
    </linearGradient>
    <linearGradient
       id="linearGradient3612">
      <stop
         offset="0"
         style="stop-color:#da5a52;stop-opacity:1"
         id="stop3614" />
      <stop
         offset="1"
         style="stop-color:#8f2925;stop-opacity:1"
         id="stop3616" />
    </linearGradient>
    <linearGradient
       id="linearGradient3596-2">
      <stop
         offset="0"
         style="stop-color:#ed817b;stop-opacity:1"
         id="stop3598-9" />
      <stop
         offset="1"
         style="stop-color:#cd2b23;stop-opacity:1"
         id="stop3600-3" />
    </linearGradient>
  </defs>
  <g
     transform="translate(-3,-4)"
     id="layer1"
     style="display:inline">
    <g
       id="layer6"
       style="display:none" />
    <rect
       width="98"
       height="10"
       rx="5"
       ry="5"
       x="18"
       y="115"
       id="rect4557"
       style="opacity:0.8;fill:#000000;fill-opacity:1;stroke:none;filter:url(#filter4905)" />
    <g
       id="g3996" />
    <g
       id="g4085" />
    <g
       transform="translate(-1,0)"
       id="g4238" />
    <g
       id="g4600" />
    <g
       id="g4909">
      <path
         d="m 20.5,15.5 c -1.108,0 -2,0.892 -2,2 l 0,104 c 0,1.108 0.892,2 2,2 l 93,0 c 1.108,0 2,-0.892 2,-2 l 0,-104 c 0,-1.108 -0.892,-2 -2,-2 l -1,0 0,1 c 0,0.554 -0.446,1 -1,1 l -6,0 c -0.554,0 -1,-0.446 -1,-1 l 0,-1 -75,0 0,1 c 0,0.554 -0.446,1 -1,1 l -6,0 c -0.554,0 -1,-0.446 -1,-1 l 0,-1 -1,0 z m 2,7 6,0 c 0.554,0 1,0.446 1,1 l 0,3 c 0,0.554 -0.446,1 -1,1 l -6,0 c -0.554,0 -1,-0.446 -1,-1 l 0,-3 c 0,-0.554 0.446,-1 1,-1 z m 83,0 6,0 c 0.554,0 1,0.446 1,1 l 0,3 c 0,0.554 -0.446,1 -1,1 l -6,0 c -0.554,0 -1,-0.446 -1,-1 l 0,-3 c 0,-0.554 0.446,-1 1,-1 z m -83,10 6,0 c 0.554,0 1,0.446 1,1 l 0,3 c 0,0.554 -0.446,1 -1,1 l -6,0 c -0.554,0 -1,-0.446 -1,-1 l 0,-3 c 0,-0.554 0.446,-1 1,-1 z m 83,0 6,0 c 0.554,0 1,0.446 1,1 l 0,3 c 0,0.554 -0.446,1 -1,1 l -6,0 c -0.554,0 -1,-0.446 -1,-1 l 0,-3 c 0,-0.554 0.446,-1 1,-1 z m -83,10 6,0 c 0.554,0 1,0.446 1,1 l 0,3 c 0,0.554 -0.446,1 -1,1 l -6,0 c -0.554,0 -1,-0.446 -1,-1 l 0,-3 c 0,-0.554 0.446,-1 1,-1 z m 83,0 6,0 c 0.554,0 1,0.446 1,1 l 0,3 c 0,0.554 -0.446,1 -1,1 l -6,0 c -0.554,0 -1,-0.446 -1,-1 l 0,-3 c 0,-0.554 0.446,-1 1,-1 z m -83,10 6,0 c 0.554,0 1,0.446 1,1 l 0,3 c 0,0.554 -0.446,1 -1,1 l -6,0 c -0.554,0 -1,-0.446 -1,-1 l 0,-3 c 0,-0.554 0.446,-1 1,-1 z m 83,0 6,0 c 0.554,0 1,0.446 1,1 l 0,3 c 0,0.554 -0.446,1 -1,1 l -6,0 c -0.554,0 -1,-0.446 -1,-1 l 0,-3 c 0,-0.554 0.446,-1 1,-1 z m -83,10 6,0 c 0.554,0 1,0.446 1,1 l 0,3 c 0,0.554 -0.446,1 -1,1 l -6,0 c -0.554,0 -1,-0.446 -1,-1 l 0,-3 c 0,-0.554 0.446,-1 1,-1 z m 83,0 6,0 c 0.554,0 1,0.446 1,1 l 0,3 c 0,0.554 -0.446,1 -1,1 l -6,0 c -0.554,0 -1,-0.446 -1,-1 l 0,-3 c 0,-0.554 0.446,-1 1,-1 z m -83,10 6,0 c 0.554,0 1,0.446 1,1 l 0,3 c 0,0.554 -0.446,1 -1,1 l -6,0 c -0.554,0 -1,-0.446 -1,-1 l 0,-3 c 0,-0.554 0.446,-1 1,-1 z m 83,0 6,0 c 0.554,0 1,0.446 1,1 l 0,3 c 0,0.554 -0.446,1 -1,1 l -6,0 c -0.554,0 -1,-0.446 -1,-1 l 0,-3 c 0,-0.554 0.446,-1 1,-1 z m -83,10 6,0 c 0.554,0 1,0.446 1,1 l 0,3 c 0,0.554 -0.446,1 -1,1 l -6,0 c -0.554,0 -1,-0.446 -1,-1 l 0,-3 c 0,-0.554 0.446,-1 1,-1 z m 83,0 6,0 c 0.554,0 1,0.446 1,1 l 0,3 c 0,0.554 -0.446,1 -1,1 l -6,0 c -0.554,0 -1,-0.446 -1,-1 l 0,-3 c 0,-0.554 0.446,-1 1,-1 z m -83,10 6,0 c 0.554,0 1,0.446 1,1 l 0,3 c 0,0.554 -0.446,1 -1,1 l -6,0 c -0.554,0 -1,-0.446 -1,-1 l 0,-3 c 0,-0.554 0.446,-1 1,-1 z m 83,0 6,0 c 0.554,0 1,0.446 1,1 l 0,3 c 0,0.554 -0.446,1 -1,1 l -6,0 c -0.554,0 -1,-0.446 -1,-1 l 0,-3 c 0,-0.554 0.446,-1 1,-1 z m -83,10 6,0 c 0.554,0 1,0.446 1,1 l 0,3 c 0,0.554 -0.446,1 -1,1 l -6,0 c -0.554,0 -1,-0.446 -1,-1 l 0,-3 c 0,-0.554 0.446,-1 1,-1 z m 83,0 6,0 c 0.554,0 1,0.446 1,1 l 0,3 c 0,0.554 -0.446,1 -1,1 l -6,0 c -0.554,0 -1,-0.446 -1,-1 l 0,-3 c 0,-0.554 0.446,-1 1,-1 z m -83,10 6,0 c 0.554,0 1,0.446 1,1 l 0,3 c 0,0.554 -0.446,1 -1,1 l -6,0 c -0.554,0 -1,-0.446 -1,-1 l 0,-3 c 0,-0.554 0.446,-1 1,-1 z m 83,0 6,0 c 0.554,0 1,0.446 1,1 l 0,3 c 0,0.554 -0.446,1 -1,1 l -6,0 c -0.554,0 -1,-0.446 -1,-1 l 0,-3 c 0,-0.554 0.446,-1 1,-1 z"
         id="rect3773"
         style="fill:url(#linearGradient4769);fill-opacity:1;stroke:url(#linearGradient4771);stroke-width:1;stroke-linejoin:round;stroke-miterlimit:4;stroke-opacity:1;stroke-dasharray:none" />
      <path
         d="m 32,15 0,22 70,0 0,-22 -70,0 z m 0,23 0,63 70,0 0,-63 -70,0 z m 0,64 0,22 70,0 0,-22 -70,0 z"
         id="path2958"
         style="fill:url(#linearGradient4766);fill-opacity:1;stroke:none" />
      <path
         d="m 90.9375,123.5 c -4.189171,-8.30363 -12.959544,-14 -23.1875,-14 -10.227223,0 -19.148464,5.69734 -23.5,14"
         id="path3935"
         style="opacity:0.5;color:#000000;fill:none;stroke:#729fcf;stroke-width:0.99999994;stroke-linecap:round;stroke-linejoin:round;stroke-miterlimit:4;stroke-opacity:1;stroke-dasharray:none;stroke-dashoffset:0;marker:none;visibility:visible;display:inline;overflow:visible;enable-background:new" />
      <path
         d="m 43.21875,15.5 c 4.263234,8.301535 13.013319,14 23.03125,14 10.018569,0 18.614517,-5.697608 22.71875,-14"
         id="path2962"
         style="opacity:0.5;color:#000000;fill:none;stroke:#729fcf;stroke-width:1;stroke-linecap:round;stroke-linejoin:round;stroke-miterlimit:4;stroke-opacity:1;stroke-dasharray:none;stroke-dashoffset:0;marker:none;visibility:visible;display:inline;overflow:visible;enable-background:new" />
      <rect
         width="70"
         height="1"
         x="32"
         y="15"
         id="rect2964"
         style="fill:url(#linearGradient4759);fill-opacity:1;stroke:none" />
      <path
         d="m 91.498949,69.499997 a 24.523313,23.976156 11.983172 0 1 -48.997898,0 24.523313,23.976156 11.983172 1 1 48.997898,0 z"
         id="path2968"
         style="opacity:0.5;color:#000000;fill:none;stroke:#729fcf;stroke-width:0.99999988;stroke-linecap:round;stroke-linejoin:round;stroke-miterlimit:4;stroke-opacity:1;stroke-dasharray:none;stroke-dashoffset:0;marker:none;visibility:visible;display:inline;overflow:visible;enable-background:new" />
      <path
         d="M 64,70 94.00234,43 98,60.181812 64,70 z"
         id="path2970"
         style="opacity:0.5;color:#000000;fill:url(#linearGradient4754);fill-opacity:1;fill-rule:evenodd;stroke:none;stroke-width:1;marker:none;visibility:visible;display:inline;overflow:visible;enable-background:new" />
      <rect
         width="70"
         height="109"
         x="32"
         y="15"
         id="rect2978"
         style="opacity:0.07999998;fill:url(#radialGradient4748);fill-opacity:1;stroke:none;display:inline;enable-background:new" />
      <rect
         width="70"
         height="109"
         x="32"
         y="15"
         id="rect2980"
         style="opacity:0.25;fill:url(#radialGradient4745);fill-opacity:1;stroke:none;display:inline;enable-background:new" />
      <rect
         width="72"
         height="0.99999994"
         x="31"
         y="16"
         id="rect2982"
         style="opacity:0.6;fill:url(#radialGradient4742);fill-opacity:1;stroke:none" />
      <rect
         width="70"
         height="1"
         x="32"
         y="123.00001"
         id="rect2984"
         style="fill:url(#linearGradient4739);fill-opacity:1;stroke:none" />
    </g>
    <g
       inkscape:groupmode="layer"
       id="layer2"
       inkscape:label="Calque">
      <g
         style="display:inline;enable-background:new"
         id="g3119"
         transform="matrix(0.59370309,0,0,0.59370309,3.7454742,60.190228)">
        <g
           style="display:inline"
           id="layer1-8"
           transform="translate(-3,-4)">
          <g
             style="display:none"
             id="layer6-7" />
          <g
             id="g2982"
             transform="translate(0,1)" />
          <g
             id="g2968" />
          <g
             id="g2975"
             transform="translate(0,1)" />
          <g
             id="g2946" />
          <rect
             style="opacity:0.8;fill:#000000;fill-opacity:1;stroke:none;filter:url(#filter4193)"
             id="rect4089"
             y="75"
             x="12"
             ry="5"
             rx="5"
             height="10"
             width="110" />
          <g
             id="g3705"
             transform="translate(0,1)">
            <rect
               style="fill:url(#linearGradient2929);fill-opacity:1;stroke:url(#linearGradient2931);stroke-width:0.99999994;stroke-opacity:1"
               id="rect3716"
               y="52.5"
               x="12.5"
               ry="3"
               rx="3"
               height="31"
               width="109" />
            <rect
               style="opacity:0.07999998;fill:url(#radialGradient2926);fill-opacity:1;stroke:none"
               id="rect3803"
               y="52"
               x="12"
               ry="3.5"
               rx="3.5"
               height="32"
               width="110" />
            <rect
               style="opacity:0.25;fill:url(#radialGradient2923);fill-opacity:1;stroke:none"
               id="rect3829"
               y="52"
               x="12"
               ry="3.5"
               rx="3.5"
               height="32"
               width="110" />
            <rect
               style="opacity:0.4;fill:url(#radialGradient2920);fill-opacity:1;stroke:none"
               id="rect3920"
               y="53"
               x="14"
               height="1"
               width="106" />
          </g>
          <g
             id="g3792" />
        </g>
      </g>
    </g>
    <g
       transform="translate(-1,0)"
       id="g4407" />
  </g>
</svg>
