<?xml version="1.0" encoding="UTF-8" standalone="no"?>
<!-- Created with Inkscape (http://www.inkscape.org/) -->

<svg
   xmlns:dc="http://purl.org/dc/elements/1.1/"
   xmlns:cc="http://creativecommons.org/ns#"
   xmlns:rdf="http://www.w3.org/1999/02/22-rdf-syntax-ns#"
   xmlns:svg="http://www.w3.org/2000/svg"
   xmlns="http://www.w3.org/2000/svg"
   xmlns:xlink="http://www.w3.org/1999/xlink"
   xmlns:sodipodi="http://sodipodi.sourceforge.net/DTD/sodipodi-0.dtd"
   xmlns:inkscape="http://www.inkscape.org/namespaces/inkscape"
   id="svg2437"
   height="48"
   width="48"
   version="1.1"
   inkscape:version="0.48.3.1 r9886"
   sodipodi:docname="clear.svg">
  <metadata
     id="metadata49">
    <rdf:RDF>
      <cc:Work
         rdf:about="">
        <dc:format>image/svg+xml</dc:format>
        <dc:type
           rdf:resource="http://purl.org/dc/dcmitype/StillImage" />
      </cc:Work>
    </rdf:RDF>
  </metadata>
  <sodipodi:namedview
     pagecolor="#ffffff"
     bordercolor="#666666"
     borderopacity="1"
     objecttolerance="10"
     gridtolerance="10"
     guidetolerance="10"
     inkscape:pageopacity="0"
     inkscape:pageshadow="2"
     inkscape:window-width="1440"
     inkscape:window-height="845"
     id="namedview47"
     showgrid="false"
     inkscape:zoom="13.5625"
     inkscape:cx="15.225806"
     inkscape:cy="24"
     inkscape:window-x="-2"
     inkscape:window-y="-3"
     inkscape:window-maximized="1"
     inkscape:current-layer="svg2437" />
  <defs
     id="defs2439">
    <radialGradient
       id="radialGradient6025"
       fx="28.603"
       gradientUnits="userSpaceOnUse"
       cy="69"
       cx="38"
       gradientTransform="matrix(1,0,0,0.45,0,37.95)"
       r="20">
      <stop
         id="stop6021"
         offset="0" />
      <stop
         id="stop6023"
         style="stop-opacity:0"
         offset="1" />
    </radialGradient>
    <linearGradient
       id="linearGradient6002"
       y2="18"
       gradientUnits="userSpaceOnUse"
       x2="34"
       gradientTransform="translate(-2,0)"
       y1="9.2408"
       x1="30.325">
      <stop
         id="stop5998"
         style="stop-color:#8f5902"
         offset="0" />
      <stop
         id="stop6000"
         style="stop-color:#73521e"
         offset="1" />
    </linearGradient>
    <linearGradient
       id="linearGradient5964"
       y2="8"
       gradientUnits="userSpaceOnUse"
       x2="26"
       gradientTransform="translate(-2,0)"
       y1="16"
       x1="28">
      <stop
         id="stop5960"
         style="stop-color:#c17d11"
         offset="0" />
      <stop
         id="stop5962"
         style="stop-color:#e9b96e"
         offset="1" />
    </linearGradient>
    <linearGradient
       id="linearGradient5994"
       y2="16.686"
       gradientUnits="userSpaceOnUse"
       x2="33.447"
       y1="8"
       x1="28">
      <stop
         id="stop5986"
         style="stop-color:#fff"
         offset="0" />
      <stop
         id="stop5988"
         style="stop-color:#fff;stop-opacity:.13439"
         offset="1" />
    </linearGradient>
    <linearGradient
       id="linearGradient5993"
       y2="37.846"
       gradientUnits="userSpaceOnUse"
       x2="29.494"
       gradientTransform="translate(-2,0)"
       y1="27.447"
       x1="17.032">
      <stop
         id="stop5989"
         style="stop-color:#d7c20f"
         offset="0" />
      <stop
         id="stop5991"
         style="stop-color:#b6970d"
         offset="1" />
    </linearGradient>
    <linearGradient
       id="linearGradient5972"
       y2="30.743"
       gradientUnits="userSpaceOnUse"
       x2="30.208"
       gradientTransform="translate(-2,0)"
       y1="25.061"
       x1="20.934">
      <stop
         id="stop5968"
         style="stop-color:#fdef72"
         offset="0" />
      <stop
         id="stop5970"
         style="stop-color:#e2cb0b"
         offset="1" />
    </linearGradient>
    <linearGradient
       id="linearGradient5973"
       y2="37.029"
       gradientUnits="userSpaceOnUse"
       x2="18.986"
       gradientTransform="translate(-2,0)"
       y1="41.956"
       x1="22.32">
      <stop
         id="stop5983"
         style="stop-color:#fff"
         offset="0" />
      <stop
         id="stop5985"
         style="stop-color:#fff;stop-opacity:.69412"
         offset="1" />
    </linearGradient>
    <linearGradient
       id="linearGradient6005"
       y2="34.728"
       gradientUnits="userSpaceOnUse"
       x2="23.489"
       gradientTransform="translate(-2,0)"
       y1="36.218"
       x1="27.355">
      <stop
         id="stop6001"
         style="stop-color:#c4a000"
         offset="0" />
      <stop
         id="stop6003"
         style="stop-color:#c4a000;stop-opacity:0"
         offset="1" />
    </linearGradient>
    <linearGradient
       id="linearGradient5980-761"
       y2="20.619"
       gradientUnits="userSpaceOnUse"
       x2="21.591"
       gradientTransform="matrix(0.97682,0,0,1,-1.3747,0)"
       y1="23.146"
       x1="27.652">
      <stop
         id="stop2473"
         style="stop-color:#919191"
         offset="0" />
      <stop
         id="stop2475"
         style="stop-color:#cecece"
         offset="1" />
    </linearGradient>
    <linearGradient
       id="linearGradient3333"
       y2="609.51001"
       gradientUnits="userSpaceOnUse"
       x2="302.85999"
       gradientTransform="matrix(0.067325,0,0,0.0147,-0.34114,37.04)"
       y1="366.64999"
       x1="302.85999">
      <stop
         id="stop5050"
         style="stop-opacity:0"
         offset="0" />
      <stop
         id="stop5056"
         offset=".5" />
      <stop
         id="stop5052"
         style="stop-opacity:0"
         offset="1" />
    </linearGradient>
    <radialGradient
       id="radialGradient3330"
       xlink:href="#linearGradient5060"
       gradientUnits="userSpaceOnUse"
       cy="486.64999"
       cx="605.71002"
       gradientTransform="matrix(-0.02304,0,0,0.0147,21.623,37.04)"
       r="117.14" />
    <linearGradient
       id="linearGradient5060">
      <stop
         id="stop5062"
         offset="0" />
      <stop
         id="stop5064"
         style="stop-opacity:0"
         offset="1" />
    </linearGradient>
    <radialGradient
       id="radialGradient3327"
       xlink:href="#linearGradient5060"
       gradientUnits="userSpaceOnUse"
       cy="486.64999"
       cx="605.71002"
       gradientTransform="matrix(0.02304,0,0,0.0147,26.361,37.04)"
       r="117.14" />
    <linearGradient
       id="linearGradient3093">
      <stop
         id="stop3095"
         offset="0" />
      <stop
         id="stop3097"
         style="stop-opacity:0"
         offset="1" />
    </linearGradient>
    <linearGradient
       id="linearGradient3322"
       y2="47.013"
       gradientUnits="userSpaceOnUse"
       x2="25.132"
       gradientTransform="matrix(1,0,0,0.95617,-1.0065e-7,-1.9149)"
       y1="0.98521"
       x1="25.132">
      <stop
         id="stop3602"
         style="stop-color:#f4f4f4"
         offset="0" />
      <stop
         id="stop3604"
         style="stop-color:#dbdbdb"
         offset="1" />
    </linearGradient>
    <linearGradient
       id="linearGradient3324"
       y2="2.9061999"
       gradientUnits="userSpaceOnUse"
       x2="-51.785999"
       gradientTransform="matrix(0.8075,0,0,0.89483,59.41,-2.9806)"
       y1="50.785999"
       x1="-51.785999">
      <stop
         id="stop3106"
         style="stop-color:#aaa"
         offset="0" />
      <stop
         id="stop3108"
         style="stop-color:#c8c8c8"
         offset="1" />
    </linearGradient>
    <radialGradient
       id="radialGradient3319"
       gradientUnits="userSpaceOnUse"
       cy="112.3"
       cx="102"
       gradientTransform="matrix(0.3617,0,0,-0.39078,0.85106,47.517)"
       r="139.56">
      <stop
         id="stop41"
         style="stop-color:#b7b8b9"
         offset="0" />
      <stop
         id="stop47"
         style="stop-color:#ececec"
         offset=".18851" />
      <stop
         id="stop49"
         style="stop-color:#fafafa;stop-opacity:0"
         offset=".25718" />
      <stop
         id="stop51"
         style="stop-color:#fff;stop-opacity:0"
         offset=".30111" />
      <stop
         id="stop53"
         style="stop-color:#fafafa;stop-opacity:0"
         offset=".53130" />
      <stop
         id="stop55"
         style="stop-color:#ebecec;stop-opacity:0"
         offset=".84490" />
      <stop
         id="stop57"
         style="stop-color:#e1e2e3;stop-opacity:0"
         offset="1" />
    </radialGradient>
    <linearGradient
       id="linearGradient3316"
       y2="46.016998"
       gradientUnits="userSpaceOnUse"
       x2="24"
       gradientTransform="matrix(1,0,0,0.97778,0,-0.96667)"
       y1="2"
       x1="24">
      <stop
         id="stop3213"
         style="stop-color:#fff"
         offset="0" />
      <stop
         id="stop3215"
         style="stop-color:#fff;stop-opacity:0"
         offset="1" />
    </linearGradient>
    <filter
       color-interpolation-filters="sRGB"
       id="filter3212"
       y="-0.16434"
       width="1.2969"
       x="-0.14846"
       height="1.3286999">
      <feGaussianBlur
         id="feGaussianBlur3214"
         stdDeviation="0.77391625" />
    </filter>
    <linearGradient
       id="linearGradient3312"
       y2="5.4565001"
       gradientUnits="userSpaceOnUse"
       x2="36.358002"
       gradientTransform="matrix(0.9977,0,0,1.0407,0.1638,-1.1058)"
       y1="8.059"
       x1="32.891998">
      <stop
         id="stop8591"
         style="stop-color:#fefefe"
         offset="0" />
      <stop
         id="stop8593"
         style="stop-color:#cbcbcb"
         offset="1" />
    </linearGradient>
    <linearGradient
       y2="5.4565001"
       x2="36.358002"
       y1="8.059"
       x1="32.891998"
       gradientTransform="matrix(0.9977,0,0,1.0407,0.1638,-1.1058)"
       gradientUnits="userSpaceOnUse"
       id="linearGradient3130"
       xlink:href="#linearGradient3312"
       inkscape:collect="always" />
    <linearGradient
       inkscape:collect="always"
       xlink:href="#linearGradient3049"
       id="linearGradient3677"
       gradientUnits="userSpaceOnUse"
       gradientTransform="matrix(1.6465,0,0,1.5556,-54.557237,-5.0013448)"
       x1="12.872"
       y1="0.62146002"
       x2="12.872"
       y2="22.487" />
    <linearGradient
       id="linearGradient3049"
       y2="22.487"
       gradientUnits="userSpaceOnUse"
       x2="12.872"
       gradientTransform="matrix(1.6465,0,0,1.5556,-2.2509,1.0176)"
       y1="0.62146002"
       x1="12.872">
      <stop
         id="stop3618"
         style="stop-color:#f0c178"
         offset="0" />
      <stop
         id="stop3270"
         style="stop-color:#e18941"
         offset=".5" />
      <stop
         id="stop3620"
         style="stop-color:#ec4f18"
         offset="1" />
    </linearGradient>
    <linearGradient
       inkscape:collect="always"
       xlink:href="#linearGradient3051"
       id="linearGradient3679"
       gradientUnits="userSpaceOnUse"
       gradientTransform="translate(-52.306337,-6.0189448)"
       x1="12.248"
       y1="34.993"
       x2="12.248"
       y2="1.9999" />
    <linearGradient
       id="linearGradient3051"
       y2="1.9999"
       gradientUnits="userSpaceOnUse"
       x2="12.248"
       y1="34.993"
       x1="12.248">
      <stop
         id="stop3624"
         style="stop-color:#bb2b12"
         offset="0" />
      <stop
         id="stop3626"
         style="stop-color:#cd7233"
         offset="1" />
    </linearGradient>
    <radialGradient
       inkscape:collect="always"
       xlink:href="#linearGradient259"
       id="radialGradient3681"
       gradientUnits="userSpaceOnUse"
       gradientTransform="matrix(0.79794,0,0,0.83941,-54.269537,-6.4514348)"
       cx="33.966999"
       cy="35.737"
       r="86.708" />
    <linearGradient
       id="linearGradient259">
      <stop
         id="stop260"
         style="stop-color:#828282"
         offset="0" />
      <stop
         id="stop261"
         style="stop-color:#434343"
         offset="1" />
    </linearGradient>
    <linearGradient
       inkscape:collect="always"
       xlink:href="#linearGradient3582"
       id="linearGradient3683"
       gradientUnits="userSpaceOnUse"
       gradientTransform="translate(-52.306337,-6.0189448)"
       x1="6"
       y1="36"
       x2="6"
       y2="1.9852999" />
    <linearGradient
       id="linearGradient3582">
      <stop
         id="stop3584"
         style="stop-color:#333"
         offset="0" />
      <stop
         id="stop3586"
         style="stop-color:#5a5a5a"
         offset="1" />
    </linearGradient>
    <radialGradient
       inkscape:collect="always"
       xlink:href="#linearGradient259"
       id="radialGradient3685"
       gradientUnits="userSpaceOnUse"
       gradientTransform="matrix(0.79799,0,0,0.83887,-54.270037,-6.4500048)"
       cx="33.966999"
       cy="35.737"
       r="86.708" />
    <linearGradient
       id="linearGradient3719">
      <stop
         id="stop3721"
         style="stop-color:#828282"
         offset="0" />
      <stop
         id="stop3723"
         style="stop-color:#434343"
         offset="1" />
    </linearGradient>
    <linearGradient
       inkscape:collect="always"
       xlink:href="#linearGradient3582"
       id="linearGradient3687"
       gradientUnits="userSpaceOnUse"
       gradientTransform="translate(-52.306337,-6.0189448)"
       x1="33"
       y1="36.014999"
       x2="33"
       y2="2" />
    <linearGradient
       id="linearGradient3726">
      <stop
         id="stop3728"
         style="stop-color:#333"
         offset="0" />
      <stop
         id="stop3730"
         style="stop-color:#5a5a5a"
         offset="1" />
    </linearGradient>
    <linearGradient
       inkscape:collect="always"
       xlink:href="#linearGradient3027"
       id="linearGradient3689"
       gradientUnits="userSpaceOnUse"
       gradientTransform="translate(-52.306337,-6.0189448)"
       x1="16.723"
       y1="3"
       x2="16.723"
       y2="35.055" />
    <linearGradient
       id="linearGradient3027"
       y2="35.055"
       gradientUnits="userSpaceOnUse"
       x2="16.723"
       y1="3"
       x1="16.723">
      <stop
         id="stop3463"
         style="stop-color:#fff"
         offset="0" />
      <stop
         id="stop3465"
         style="stop-color:#fff;stop-opacity:0"
         offset="1" />
    </linearGradient>
    <linearGradient
       inkscape:collect="always"
       xlink:href="#linearGradient3049-6"
       id="linearGradient3677-3"
       gradientUnits="userSpaceOnUse"
       gradientTransform="matrix(1.6465,0,0,1.5556,-54.557237,-5.0013448)"
       x1="12.872"
       y1="0.62146002"
       x2="12.872"
       y2="22.487" />
    <linearGradient
       id="linearGradient3049-6"
       y2="22.487"
       gradientUnits="userSpaceOnUse"
       x2="12.872"
       gradientTransform="matrix(1.6465,0,0,1.5556,-2.2509,1.0176)"
       y1="0.62146002"
       x1="12.872">
      <stop
         id="stop3618-1"
         style="stop-color:#fbedd8;stop-opacity:1;"
         offset="0" />
      <stop
         id="stop3270-8"
         style="stop-color:#dd7b2a;stop-opacity:1;"
         offset="0.5" />
      <stop
         id="stop3620-4"
         style="stop-color:#da4612;stop-opacity:1;"
         offset="1" />
    </linearGradient>
    <linearGradient
       inkscape:collect="always"
       xlink:href="#linearGradient3051-4"
       id="linearGradient3679-2"
       gradientUnits="userSpaceOnUse"
       gradientTransform="translate(-52.306337,-6.0189448)"
       x1="12.248"
       y1="34.993"
       x2="12.248"
       y2="1.9999" />
    <linearGradient
       id="linearGradient3051-4"
       y2="1.9999"
       gradientUnits="userSpaceOnUse"
       x2="12.248"
       y1="34.993"
       x1="12.248">
      <stop
         id="stop3624-8"
         style="stop-color:#bb2b12"
         offset="0" />
      <stop
         id="stop3626-2"
         style="stop-color:#da986a;stop-opacity:1;"
         offset="1" />
    </linearGradient>
    <linearGradient
       inkscape:collect="always"
       xlink:href="#linearGradient3027-8"
       id="linearGradient3689-4"
       gradientUnits="userSpaceOnUse"
       gradientTransform="translate(-52.306337,-6.0189448)"
       x1="16.723"
       y1="3"
       x2="16.723"
       y2="35.055" />
    <linearGradient
       id="linearGradient3027-8"
       y2="35.055"
       gradientUnits="userSpaceOnUse"
       x2="16.723"
       y1="3"
       x1="16.723">
      <stop
         id="stop3463-8"
         style="stop-color:#fff"
         offset="0" />
      <stop
         id="stop3465-4"
         style="stop-color:#fff;stop-opacity:0"
         offset="1" />
    </linearGradient>
  </defs>
  <g
     id="g3652"
     transform="matrix(1.233055,0,0,1.233055,66.301592,7.9938049)">
    <rect
       id="rect2909"
       style="fill:#ffffff"
       height="2"
       width="2"
       y="1.9810551"
       x="-23.306337" />
    <rect
       id="rect3457"
       style="fill:url(#linearGradient3677-3);stroke:url(#linearGradient3679-2);stroke-linejoin:round"
       rx="0"
       ry="0"
       height="32.985001"
       width="18.986"
       y="-3.5189447"
       x="-43.799137" />
    <path
       inkscape:connector-curvature="0"
       id="path3460"
       style="fill:none;stroke:#333333;stroke-linecap:square;stroke-linejoin:round"
       d="m -42.834637,13.481055 h 17.003" />
    <path
       inkscape:connector-curvature="0"
       id="path3360"
       style="opacity:0.36637998;fill:none;stroke:#ffffff;stroke-linecap:square;stroke-linejoin:round;display:block"
       d="m -42.806337,14.481055 h 16.995" />
    <path
       inkscape:connector-curvature="0"
       id="path3385"
       style="fill:#555753;stroke:#2e3436;stroke-linejoin:round;display:block"
       d="M -43.806337,-3.5114448 V 29.480555 h -4.7819 c -0.40935,-0.39064 -0.09808,-1.1662 -0.19534,-1.7193 V -3.3217448 l 0.05709,-0.13417 0.13825,-0.055403 h 4.7819 z" />
    <rect
       id="rect3480"
       style="fill:#ffffff"
       height="2"
       width="2"
       y="-2.0189447"
       x="-47.306335" />
    <path
       inkscape:connector-curvature="0"
       id="rect15391"
       style="fill:#555753;stroke:#2e3436;stroke-linejoin:round;display:block"
       d="M -24.806337,29.459055 V -3.5119448 h 4.802 c 0.23608,0 0.19535,1.0357 0.19535,1.7182 0,10.354 2e-6,20.7089998 2e-6,31.0629998 -0.40255,0.39701 -1.2018,0.09512 -1.7717,0.18945 h -3.2257 z" />
    <rect
       id="rect2689"
       style="opacity:0.4;fill:none;stroke:url(#linearGradient3689-4);stroke-linecap:square"
       rx="0"
       ry="0"
       height="31"
       width="27"
       y="-2.5189447"
       x="-47.806335" />
    <rect
       id="rect2893"
       style="fill:#ffffff"
       height="2"
       width="2"
       y="1.9810551"
       x="-47.306335" />
    <rect
       id="rect2895"
       style="fill:#ffffff"
       height="2"
       width="2"
       y="5.9810553"
       x="-47.306335" />
    <rect
       id="rect2897"
       style="fill:#ffffff"
       height="2"
       width="2"
       y="9.9810553"
       x="-47.306335" />
    <rect
       id="rect2899"
       style="fill:#ffffff"
       height="2"
       width="2"
       y="13.981055"
       x="-47.306335" />
    <rect
       id="rect2901"
       style="fill:#ffffff"
       height="2"
       width="2"
       y="17.981054"
       x="-47.306335" />
    <rect
       id="rect2903"
       style="fill:#ffffff"
       height="2"
       width="2"
       y="21.981054"
       x="-47.306335" />
    <rect
       id="rect2905"
       style="fill:#ffffff"
       height="2"
       width="2"
       y="25.981054"
       x="-47.306335" />
    <rect
       x="-23.306335"
       y="-2.0189447"
       width="2"
       height="2"
       style="fill:#ffffff"
       id="rect3636" />
    <rect
       x="-23.306335"
       y="1.9810551"
       width="2"
       height="2"
       style="fill:#ffffff"
       id="rect3638" />
    <rect
       x="-23.306335"
       y="5.9810553"
       width="2"
       height="2"
       style="fill:#ffffff"
       id="rect3640" />
    <rect
       x="-23.306335"
       y="9.9810553"
       width="2"
       height="2"
       style="fill:#ffffff"
       id="rect3642" />
    <rect
       x="-23.306335"
       y="13.981055"
       width="2"
       height="2"
       style="fill:#ffffff"
       id="rect3644" />
    <rect
       x="-23.306335"
       y="17.981054"
       width="2"
       height="2"
       style="fill:#ffffff"
       id="rect3646" />
    <rect
       x="-23.306335"
       y="21.981054"
       width="2"
       height="2"
       style="fill:#ffffff"
       id="rect3648" />
    <rect
       x="-23.306335"
       y="25.981054"
       width="2"
       height="2"
       style="fill:#ffffff"
       id="rect3650" />
  </g>
  <g
     id="layer1"
     transform="matrix(0.706425,0,0,0.706425,-2.8257,14.797841)">
    <path
       id="path6017"
       style="opacity:0.25;fill:url(#radialGradient6025)"
       d="m 58,69 a 20,9 0 1 1 -40,0 20,9 0 1 1 40,0 z"
       transform="matrix(1,0,0,0.66667,-14,-5)"
       inkscape:connector-curvature="0" />
    <path
       id="path5371"
       style="fill:url(#linearGradient5964);fill-rule:evenodd;stroke:url(#linearGradient6002);stroke-width:1px"
       d="m 34.594,2.4688 c -8.2032,0.10565 -9.3968,16.248 -11.75,19.156 l 4,1.4375 C 29.476,18.6903 42.6,4.1543 35.406,2.5003 35.127,2.4693 34.858,2.4656 34.594,2.4691 z m -1.0312,2.0625 c 0.19356,-0.018739 0.36799,0.00572 0.53125,0.09375 0.65306,0.35212 0.72366,1.4949 0.15625,2.5312 -0.5674,1.0364 -1.5657,1.6021 -2.2188,1.25 -0.654,-0.3522 -0.724,-1.4949 -0.157,-2.5313 0.426,-0.7773 1.107,-1.2875 1.687,-1.3438 z"
       inkscape:connector-curvature="0" />
    <path
       id="path5992"
       style="opacity:0.26667002;fill:none;stroke:url(#linearGradient5994);stroke-width:1px"
       d="m 36.594,3.4688 c -1.7216,0.022173 -3.0079,0.85587 -4.1875,2.2812 -1.1796,1.4254 -2.1483,3.4416 -2.9375,5.5938 -0.78917,2.1521 -1.424,4.4343 -2,6.375 -0.39989,1.3475 -0.76986,2.4064 -1.2188,3.3438 l 2.1875,0.78125 c 1.6186,-2.4956 5.0388,-6.5912 7.5312,-10.625 1.3258,-2.1458 2.2837,-4.178 2.5,-5.5625 0.108,-0.692 0.045,-1.1727 -0.125,-1.4685 -0.165,-0.2865 -0.464,-0.5246 -1.125,-0.6875 -0.2,-0.0188 -0.401,-0.0341 -0.625,-0.0312 z"
       transform="translate(-2,0)"
       inkscape:connector-curvature="0" />
    <path
       id="path5367"
       style="fill:url(#linearGradient5972);fill-rule:evenodd;stroke:url(#linearGradient5993);stroke-miterlimit:20"
       d="m 20.5,16.5 c 0.70951,2.003 -0.54139,3.7378 -1,5 -5.192,1.546 -8.787,9.704 -14.133,13.954 0.6682,0.697 1.4526,1.444 2.133,2.046 l 4.0625,-3.5312 -3.0676,4.5246 c 2.2091,1.791 4.5051,3.007 6.0051,3.507 l 2.75,-3.656 -1.75,4.156 c 1.452,0.58888 4.9853,1.482 7,1.5 l 2.0039,-3.4025 -0.51317,3.465 c 0.82956,0.15836 2.4382,0.37422 3.5093,0.40625 3.3622,-5.5 4,-14.469 2,-18.469 -0.5,-2 1.5,-4.5 3,-5.5 -2.5,-2 -8.2056,-4.3037 -12,-4 z"
       inkscape:connector-curvature="0" />
    <path
       id="path5975"
       style="opacity:0.26667002;fill:#c4a000;fill-rule:evenodd"
       d="M 9,38.5 C 13.816,33.489 13.465,31.296 19.116,26.972 16.134,31.801 15.65,34.312 12,40.5 l -3,-2 z"
       inkscape:connector-curvature="0" />
    <path
       id="path5979"
       style="opacity:0.41568998;fill:#c4a000;fill-rule:evenodd"
       d="m 16.15,42.202 4.346,-9.8401 c 1.6645,-2.9837 2.8597,-5.9701 4.529,-8.3474 -1.602,5.418 -4.8907,12.122 -7.5312,18.625 L 16.15,42.202 z"
       inkscape:connector-curvature="0" />
    <path
       id="path6014"
       style="opacity:0.47843;fill:none;stroke:url(#linearGradient5973);stroke-width:1px"
       d="m 21.625,17.5 c 0.09674,1.9151 -0.92294,3.5296 -1.2188,4.3438 -0.1041,0.28471 -0.33533,0.50437 -0.625,0.59375 -5.4534,2.2346 -7.6298,8.574 -12.995,13.086 0.20164,0.19985 0.49203,0.4173 0.69453,0.60823 l 9.019,-7.632 -6.5766,9.81 c 1.27,1.0276 2.7222,1.8845 4.2267,2.4892 l 6.994,-9.299 -4.274,10.412 c 1.595,0.525 3.098,0.827 4.945,1.088 l 4.6187,-7.6875 -1.3707,7.9068 1.875,0.226 c 1.4332,-2.5355 2.1324,-5.6665 2.5312,-8.7891 0.42394,-3.3188 -0.005,-6.5412 -0.84375,-8.2188 -0.02716,-0.06021 -0.0481,-0.12304 -0.0625,-0.1875 -0.34686,-1.3874 0.16914,-2.7456 0.875,-3.875 0.42689,-0.68303 0.93037,-1.2908 1.465,-1.8018 -1.172,-0.781 -2.587,-1.459 -4.372,-2.103 -1.762,-0.637 -3.498,-0.95 -4.906,-0.969 z"
       inkscape:connector-curvature="0" />
    <path
       id="path5977"
       style="opacity:0.24706002;fill:url(#linearGradient6005);fill-rule:evenodd"
       d="m 18.969,43 c 2.1776,-5.7519 6.3959,-10.069 8.0169,-15.935 0.05154,3.6621 0.24972,10.204 -1.8919,16.717 -0.31977,0.0018 -0.17393,-0.11081 -0.46988,-0.11855 l 0.80079,-5.7245 -3.2815,5.5544 c -2.191,-0.157 -1.294,0.032 -3.174,-0.493 z"
       inkscape:connector-curvature="0" />
    <path
       id="path5995"
       style="opacity:0.48235001;fill:#c4a000;fill-rule:evenodd"
       d="m 21.003,22.61 c -1.252,0.61638 -2.0622,1.5273 -2.9831,2.3644 1.2265,-0.70864 2.379,-1.449 3.9996,-1.9887 L 21.003,22.61005 z"
       inkscape:connector-curvature="0" />
    <path
       id="path5997"
       style="opacity:0.48235001;fill:#c4a000;fill-rule:evenodd"
       d="m 23.009,23.061 -1.0165,1.9887 2.9807,-1.5882 -1.9642,-0.40049 z"
       inkscape:connector-curvature="0" />
    <path
       id="path6007"
       style="opacity:0.48235001;fill:#c4a000;fill-rule:evenodd"
       d="m 22.94,17.961 -0.89519,1.707 1.5657,0.50208 -0.67053,-2.2091 z"
       inkscape:connector-curvature="0" />
    <path
       id="path6009"
       style="opacity:0.48235001;fill:#c4a000;fill-rule:evenodd"
       d="m 29.923,19.885 -2.4602,1.8354 1.5657,0.50208 0.89452,-2.3375 z"
       inkscape:connector-curvature="0" />
    <path
       id="path6011"
       style="opacity:0.48235001;fill:#c4a000;fill-rule:evenodd"
       d="m 26.013,17.939 -1.5139,2.5246 1.5657,0.50208 -0.05182,-3.0267 z"
       inkscape:connector-curvature="0" />
    <path
       id="path6013"
       style="opacity:0.2;fill-rule:evenodd"
       d="m 18.968,22.025 c -0.56678,-2.9655 9.3328,2.1529 11.037,2.9944 -0.0065,1.0791 0,2 -0.97682,2 -2.5675,-1.393 -6.5353,-3.6051 -10.06,-4.9944 z"
       inkscape:connector-curvature="0" />
    <path
       id="path5373"
       style="fill:url(#linearGradient5980-761);fill-rule:evenodd;stroke:#464646;stroke-width:1px;stroke-linejoin:round"
       d="m 18.65,21.5 c -0.48841,-1 0,-2 0.97682,-2 3.9914,0.97542 7.3249,2.2062 10.745,4 0.48841,1 0,2 -0.97682,2 -3.5339,-1.8644 -6.8667,-3.0748 -10.745,-4 z"
       inkscape:connector-curvature="0" />
  </g>
</svg>
